<?xml version="1.0" encoding="utf-8"?>
<!-- Generator: Adobe Illustrator 17.1.0, SVG Export Plug-In . SVG Version: 6.00 Build 0)  -->
<!DOCTYPE svg PUBLIC "-//W3C//DTD SVG 1.1//EN" "http://www.w3.org/Graphics/SVG/1.1/DTD/svg11.dtd">
<svg version="1.1" id="Layer_1" xmlns="http://www.w3.org/2000/svg" xmlns:xlink="http://www.w3.org/1999/xlink" x="0px" y="0px"
	 width="1000px" height="1000px" viewBox="0 0 1000 1000" enable-background="new 0 0 1000 1000" xml:space="preserve">
<g>
	<path d="M893.941,514.885c-2.339-10.114-14.376-14.393-22.574-8.026L704.242,636.645c-8.873,6.89-6.627,20.864,3.958,24.627
		l60.381,21.469c-25.05,38.842-58.309,71.95-97.652,96.928c-36.896,23.426-78.011,38.862-120.93,45.62V361.016h160.309
		c27.614,0,50-22.386,50-50s-22.386-50-50-50h-58.106c9.234-20.689,14.378-43.588,14.378-67.669
		c0-91.853-74.728-166.58-166.58-166.58s-166.58,74.728-166.58,166.58c0,24.081,5.144,46.98,14.378,67.669h-58.107
		c-27.614,0-50,22.386-50,50s22.386,50,50,50H450v464.273c-42.918-6.758-84.034-22.194-120.93-45.62
		c-39.343-24.979-72.601-58.087-97.652-96.928l60.381-21.469c10.585-3.763,12.831-17.737,3.958-24.627L128.634,506.858
		c-8.199-6.367-20.236-2.087-22.574,8.026L58.38,721.044c-2.531,10.945,8.032,20.365,18.617,16.601l58.261-20.714
		c33.913,59.635,81.988,110.193,140.213,147.16C328.444,897.724,387.999,918.825,450,926.22v7.123c0,27.614,22.386,50,50,50
		s50-22.386,50-50v-7.123c62.001-7.395,121.557-28.496,174.53-62.129c58.225-36.968,106.299-87.525,140.213-147.16l58.26,20.714
		c10.585,3.763,21.148-5.656,18.617-16.601L893.941,514.885z M500,126.767c36.713,0,66.58,29.867,66.58,66.58
		s-29.867,66.58-66.58,66.58c-36.712,0-66.58-29.867-66.58-66.58S463.288,126.767,500,126.767z"/>
</g>
</svg>
