<?xml version="1.0" encoding="utf-8"?>
<!-- Generator: Adobe Illustrator 17.1.0, SVG Export Plug-In . SVG Version: 6.00 Build 0)  -->
<!DOCTYPE svg PUBLIC "-//W3C//DTD SVG 1.1//EN" "http://www.w3.org/Graphics/SVG/1.1/DTD/svg11.dtd">
<svg version="1.1" id="Layer_1" xmlns="http://www.w3.org/2000/svg" xmlns:xlink="http://www.w3.org/1999/xlink" x="0px" y="0px"
	 width="1000px" height="1000px" viewBox="0 0 1000 1000" enable-background="new 0 0 1000 1000" xml:space="preserve">
<g>
	<path d="M964.203,173.643c-43.127-41.852-91.852-80.833-150.401-98.034c-63.21-18.57-128.941-1.458-183.726,32.339
		c-48.41,29.865-88.886,70.732-128.95,110.602c-32.389,32.231-64.777,64.463-97.166,96.694c3.413,2.132,6.615,4.656,9.532,7.572
		l33.291,33.291c3.737,3.736,6.847,7.932,9.285,12.456c27.097-26.965,54.194-53.931,81.291-80.896
		c34.006-33.841,67.413-68.74,105.303-98.318c18.832-13.905,38.805-26.185,60.287-35.526c12.917-4.901,26.202-8.615,39.847-10.788
		c10.275-0.959,20.559-0.969,30.832-0.01c12.456,2.008,24.592,5.356,36.391,9.809c19.597,8.583,37.827,19.853,55.025,32.548
		c2.583,2.023,5.136,4.083,7.674,6.159L486.499,577.76l39.726,39.572c0.926,0.923,1.801,1.883,2.648,2.861l25.107-25.107
		c3.512-3.512,5.486-8.276,5.486-13.244l0-27.747c0-3.81,3.089-6.898,6.898-6.898l28.033,0c3.81,0,6.898-3.088,6.898-6.898l0-28.033
		c0-3.81,3.088-6.898,6.898-6.898h28.033c3.81,0,6.898-3.089,6.898-6.898l0-28.033c0-3.81,3.088-6.898,6.898-6.898h28.033
		c3.81,0,6.898-3.089,6.898-6.898l0-28.033c0-3.81,3.088-6.898,6.898-6.898l28.033,0c3.81,0,6.898-3.089,6.898-6.898l0-28.033
		c0-3.81,3.088-6.898,6.898-6.898h28.033c3.81,0,6.898-3.088,6.898-6.898l0-28.033c0-3.81,3.088-6.898,6.898-6.898l28.033,0
		c3.81,0,6.898-3.088,6.898-6.898l0-28.033c0-3.81,3.088-6.898,6.898-6.898l28.033,0c3.81,0,6.898-3.089,6.898-6.898l0-28.033
		c0-3.81,3.088-6.898,6.898-6.898h27.747c4.967,0,9.731-1.973,13.244-5.486l17.618-17.618c14.441,9.05,33.834,7.661,46.422-4.926
		C978.408,212.154,978.788,187.797,964.203,173.643z"/>
	<path d="M55.833,725.242c5.294,5.273,12.22,7.908,19.144,7.908c6.96,0,13.919-2.662,19.22-7.983l8.947-8.982l120.868,120.398
		l-8.947,8.982c-10.574,10.615-10.54,27.791,0.075,38.364l22.851,22.762c5.294,5.273,12.22,7.908,19.144,7.908
		c6.96,0,13.92-2.662,19.22-7.983l28.092-28.201l22.638-22.726l181.573-182.281c9.652-9.689,10.46-24.843,2.456-35.454
		c-0.765-1.014-1.605-1.989-2.53-2.91l-39.76-39.606L357.933,484.98l71.173-71.173c7.062-7.062,9.604-16.927,7.64-26.014
		c-1.109-5.133-3.651-10.018-7.64-14.007l-33.291-33.291c-3.077-3.077-6.689-5.295-10.535-6.659c-3.059-1.085-6.267-1.63-9.475-1.63
		c-7.243,0-14.484,2.762-20.01,8.289l-71.316,71.316l-0.122-0.122l-62.608,62.852l-7.999,7.999
		c-0.224,0.224-0.436,0.455-0.651,0.684L83.638,613.189L61,635.915l-28.092,28.201c-10.573,10.615-10.54,27.791,0.075,38.364
		L55.833,725.242z M353.125,383.184c4.779-4.779,11.102-7.051,17.363-6.861c5.783,0.175,11.514,2.447,15.928,6.861
		c4.792,4.792,7.062,11.136,6.858,17.414c-0.187,5.766-2.457,11.476-6.858,15.877c-9.193,9.193-24.098,9.193-33.291,0
		C343.932,407.282,343.932,392.377,353.125,383.184z M141.159,627.09l53.602-53.811c10.573-10.615,27.75-10.648,38.364-0.075
		l133.361,132.843c10.615,10.573,10.648,27.75,0.075,38.364l-53.602,53.811c-10.573,10.615-27.75,10.648-38.364,0.075
		L141.234,665.454C130.619,654.881,130.586,637.705,141.159,627.09z"/>
</g>
</svg>
