<?xml version="1.0" encoding="utf-8"?>
<!-- Generator: Adobe Illustrator 17.1.0, SVG Export Plug-In . SVG Version: 6.00 Build 0)  -->
<!DOCTYPE svg PUBLIC "-//W3C//DTD SVG 1.1//EN" "http://www.w3.org/Graphics/SVG/1.1/DTD/svg11.dtd">
<svg version="1.1" id="Layer_1" xmlns="http://www.w3.org/2000/svg" xmlns:xlink="http://www.w3.org/1999/xlink" x="0px" y="0px"
	 width="1000px" height="1000px" viewBox="0 0 1000 1000" enable-background="new 0 0 1000 1000" xml:space="preserve">
<g>
	<path d="M380.183,425.136l195.191,266.176c2.62,3.573,4.76,7.395,6.412,11.387c26.712-10.388,67.738-25.886,71.041-29.361
		c3.809-4.008,0.767-9.709-0.57-14.285c-3.315-11.346-6.901-22.616-10.521-33.868c-0.656-2.04-1.313-4.079-1.978-6.116
		c-0.811-3.295,1.203-6.623,4.497-7.435c0,0,49.829-12.266,50.019-12.313c1.48-0.364,2.829-1.507,3.753-2.94
		c1.019-1.578,1.522-3.509,1.121-5.142l-12.887-52.351c-0.811-3.295,1.202-6.623,4.497-7.435l50.114-12.337
		c1.619-0.399,3.006-1.438,3.844-2.88l0.306-0.526c0.799-1.376,1.034-3.009,0.653-4.555l-12.911-52.448
		c-0.811-3.295,1.202-6.623,4.497-7.435l50.208-12.36c1.619-0.398,3.007-1.438,3.844-2.88l0.235-0.405
		c0.8-1.376,1.034-3.009,0.653-4.555l-12.935-52.545c-0.812-3.295,1.202-6.623,4.497-7.435l50.301-12.383
		c1.619-0.398,3.006-1.438,3.844-2.879l0.166-0.285c0.799-1.376,1.034-3.009,0.653-4.555l-10.808-43.903
		c-1.188-4.826-2.822-11.107-1.442-13.388c0.814-1.345,2.141-2.38,3.789-2.786l50.395-12.406c0.81-0.199,1.561-0.559,2.215-1.049
		c1.091-0.817,1.65-1.868,1.677-1.913l0.048-0.082c0.8-1.376,1.034-3.009,0.654-4.555l-12.983-52.74
		c-0.811-3.295,1.202-6.623,4.497-7.434l50.489-12.429c1.619-0.398,3.006-1.438,3.844-2.879l0.026-0.044
		c0.8-1.376,1.034-3.009,0.653-4.555l-13.007-52.837c-0.811-3.295,1.202-6.623,4.497-7.435l49.238-14.003
		c4.781-1.36,9.392-2.555,9.355-6.819c-0.021-2.493-5.385-6.41-9.065-9.751L919.123,51.26c-3.681-3.341-9.938-8.613-14.731-9.929
		c-7.222-1.984-15.138-0.665-21.432,3.95L373.863,418.61C376.229,420.48,378.367,422.66,380.183,425.136z"/>
	<path d="M61.06,726.885c5.694,7.765,14.518,11.879,23.461,11.879c5.965,0,11.984-1.83,17.163-5.628c0,0,2.452-1.798,5.477-4.016
		c0.96-0.704,2.103-1.039,3.31-1.039c2.594,0,5.482,1.545,7.489,4.28L215.4,865.238c2.939,4.008,2.87,9.056-0.154,11.274
		l-5.477,4.016c-12.944,9.492-15.742,27.68-6.25,40.624l20.434,27.865c5.694,7.765,14.518,11.879,23.46,11.879
		c5.966,0,11.984-1.83,17.164-5.628l34.391-25.219l27.713-20.322l222.284-163.005c11.083-8.127,14.72-22.628,9.58-34.756
		c-0.863-2.036-1.965-4.008-3.33-5.868L360.023,439.92c-1.763-2.404-4.496-3.678-7.265-3.678c-1.847,0-3.711,0.567-5.315,1.743
		l-49.596,36.369l-188.868,138.5l-27.713,20.322l-34.39,25.219c-12.944,9.492-15.743,27.68-6.25,40.624L61.06,726.885z
		 M167.577,637.059l65.62-48.12c12.944-9.492,31.132-6.694,40.624,6.25l119.258,162.628c9.492,12.944,6.694,31.132-6.25,40.624
		l-65.62,48.12c-12.944,9.492-31.132,6.694-40.624-6.25L161.327,677.683C151.835,664.739,154.633,646.551,167.577,637.059z"/>
</g>
</svg>
