<?xml version="1.0" encoding="utf-8"?>
<!-- Generator: Adobe Illustrator 17.1.0, SVG Export Plug-In . SVG Version: 6.00 Build 0)  -->
<!DOCTYPE svg PUBLIC "-//W3C//DTD SVG 1.1//EN" "http://www.w3.org/Graphics/SVG/1.1/DTD/svg11.dtd">
<svg version="1.1" id="Layer_1" xmlns="http://www.w3.org/2000/svg" xmlns:xlink="http://www.w3.org/1999/xlink" x="0px" y="0px"
	 width="1000px" height="1000px" viewBox="0 0 1000 1000" enable-background="new 0 0 1000 1000" xml:space="preserve">
<g>
	<path d="M78.792,782.549c0,13.415,10.875,24.29,24.29,24.29h787.836c13.415,0,24.29-10.875,24.29-24.29V374.189H78.792V782.549z
		 M677.792,511.454c0-6.419,5.203-11.622,11.622-11.622h112.098c6.419,0,11.622,5.203,11.622,11.622v27.54
		c0,6.419-5.203,11.622-11.622,11.622H689.414c-6.419,0-11.622-5.203-11.622-11.622V511.454z M180.866,510.879
		c0-6.091,4.938-11.029,11.029-11.029h36.764v-36.8c0-6.091,4.938-11.029,11.029-11.029h28.725c6.091,0,11.029,4.938,11.029,11.029
		v36.8h36.764c6.091,0,11.029,4.938,11.029,11.029v28.726c0,6.091-4.938,11.029-11.029,11.029h-36.764v36.764
		c0,6.091-4.938,11.029-11.029,11.029h-28.725c-6.091,0-11.029-4.938-11.029-11.029v-36.764h-36.764
		c-6.091,0-11.029-4.938-11.029-11.029V510.879z"/>
	<path d="M943.285,349.189c12.545,0,22.715-10.17,22.715-22.715V288.31c0-12.545-10.17-22.715-22.715-22.715H816.537v-42.552
		c0-12.545-10.17-22.715-22.715-22.715h-97.83c-12.545,0-22.715,10.17-22.715,22.715v42.552H329.611v-42.552
		c0-12.545-10.17-22.715-22.715-22.715h-97.83c-12.545,0-22.715,10.17-22.715,22.715v42.552H50.715
		C38.17,265.594,28,275.764,28,288.31v38.165c0,12.545,10.17,22.715,22.715,22.715h28.076h836.417H943.285z"/>
</g>
</svg>
