<?xml version="1.0" encoding="utf-8"?>
<!-- Generator: Adobe Illustrator 17.1.0, SVG Export Plug-In . SVG Version: 6.00 Build 0)  -->
<!DOCTYPE svg PUBLIC "-//W3C//DTD SVG 1.1//EN" "http://www.w3.org/Graphics/SVG/1.1/DTD/svg11.dtd">
<svg version="1.1" id="Layer_1" xmlns="http://www.w3.org/2000/svg" xmlns:xlink="http://www.w3.org/1999/xlink" x="0px" y="0px"
	 width="1000px" height="1000px" viewBox="0 0 1000 1000" enable-background="new 0 0 1000 1000" xml:space="preserve">
<g>
	<path d="M794.749,73.488L543.241,324.997l126.942,126.942L921.692,200.43c35.054-35.054,35.054-91.888,0-126.942
		S829.803,38.434,794.749,73.488z"/>
	<path d="M144.154,943.578c4.748,4.748,10.971,7.122,17.195,7.122c6.223,0,12.447-2.374,17.195-7.122l152.345-152.345
		l-35.355-35.355L161.349,890.063L97.27,825.984l49.724-79.992c1.997,2.457,4.921,4.226,8.517,4.644l27.221,3.164
		c3.929,0.457,7.85-0.908,10.647-3.704l48.186-48.186l-41.42-41.421l-2.727-2.727l-2.753-2.753
		c-10.821-10.821-20.129-22.8-27.841-35.625L44.047,816.896c-5.966,9.598-4.534,22.041,3.457,30.032L144.154,943.578z"/>
	<path d="M181.966,595.024c7.478,15.133,17.486,29.332,30.039,41.96c0.114,0.115,0.223,0.233,0.338,0.347l46.901,46.901
		l89.323,89.323l10.182,10.182c5.688,5.687,13.142,8.531,20.596,8.531c7.454,0,14.909-2.844,20.596-8.531L662.687,520.99
		c11.375-11.375,11.375-29.817,0-41.192l-10.181-10.181L525.563,342.674l-9.282-9.282c-18.045-18.046-39.327-30.876-61.974-38.514
		c-2.114-0.713-0.27-38.251-0.011-42.572c1.84-30.762-24.273-49.087-43.777-68.591c-13.446-13.446-26.892-26.892-40.338-40.338
		c-5.961-5.961-13.916-8.942-21.871-8.942c-9.79,0-19.58,4.515-25.654,13.543c-8.341,12.399-6.278,29.081,4.289,39.647
		l65.271,65.271c0.062,11.305,0.124,22.61,0.186,33.915c-37.42,2.458-74.142,17.979-102.742,46.58l-73.755,73.755
		c-3.811-1.567-7.889-2.35-11.969-2.35c-7.952,0-15.904,2.979-21.863,8.938c-0.441,0.441-34.123,34.123-34.123,34.123
		c-11.922,11.922-11.922,31.82,0,43.743c0.888,0.887,1.824,1.701,2.793,2.456c0.755,0.969,1.569,1.906,2.456,2.793l12.854,12.854
		C163.464,538.735,168.776,568.333,181.966,595.024z M467.462,644.344l-60.125,60.125c-4.882,4.881-11.28,7.322-17.678,7.322
		s-12.796-2.441-17.678-7.322c-9.763-9.763-9.763-25.592,0-35.355l60.125-60.125c9.764-9.763,25.592-9.763,35.355,0
		C477.226,618.752,477.226,634.581,467.462,644.344z M295.936,593.069l60.125-60.125c9.764-9.763,25.592-9.763,35.355,0
		c9.763,9.763,9.763,25.592,0,35.355l-60.125,60.125c-4.882,4.881-11.28,7.322-17.678,7.322s-12.796-2.441-17.678-7.322
		C286.173,618.661,286.173,602.832,295.936,593.069z"/>
</g>
</svg>
