<?xml version="1.0" encoding="utf-8"?>
<!-- Generator: Adobe Illustrator 16.0.4, SVG Export Plug-In . SVG Version: 6.00 Build 0)  -->
<!DOCTYPE svg PUBLIC "-//W3C//DTD SVG 1.1//EN" "http://www.w3.org/Graphics/SVG/1.1/DTD/svg11.dtd">
<svg version="1.1" id="Layer_1" xmlns="http://www.w3.org/2000/svg" xmlns:xlink="http://www.w3.org/1999/xlink" x="0px" y="0px"
	 width="100px" height="100px" viewBox="0 0 100 100" enable-background="new 0 0 100 100" xml:space="preserve">
<g>
	<path d="M78.414,44.784c0-1.379-1.129-2.508-2.508-2.508H63.104c-1.379,0-2.508,1.128-2.508,2.508s1.129,2.508,2.508,2.508h1.38
		c0,0.075,0,0.125,0,0.201v14.019h10.031V47.492c0-0.075,0-0.125,0-0.201h1.379C77.285,47.292,78.414,46.175,78.414,44.784z"/>
	<path d="M69.499,98.101c2.771,0,5.016-2.244,5.016-5.016v-0.101h3.034c1.38,0,2.508-1.129,2.508-2.508s-1.128-2.508-2.508-2.508
		h-3.034v-4.062c-0.777,0.251-1.593,0.376-2.445,0.376h-7.586v3.674H52.27c-1.379,0-2.508,1.129-2.508,2.508
		c0,1.38,1.129,2.508,2.508,2.508h12.214v0.101C64.483,95.856,66.74,98.101,69.499,98.101z"/>
	<path d="M72.069,1.899H20.947c-3.022,0-5.467,2.445-5.467,5.467v68.941c0,3.021,2.445,5.467,5.467,5.467h43.548h7.587
		c0.878,0,1.705-0.213,2.445-0.577c1.793-0.89,3.034-2.746,3.034-4.89V66.05c0-1.128-0.915-2.044-2.044-2.044H74.54H64.508H34.163
		c-1.128,0-2.044-0.915-2.044-2.044l-0.025-41.379c0-1.129,0.915-2.044,2.044-2.044h24.477c1.128,0,2.081,0.928,2.081,2.056
		l0.025,10.859c0,0.464,0.125,0.877,0.351,1.254c0.439,0.727,1.229,1.229,2.157,1.229h16.827h1.956c1.38,0,2.508-1.128,2.508-2.508
		s-1.128-2.508-2.508-2.508h-1.956h-1.254h-1.254V7.379C77.549,4.357,75.104,1.899,72.069,1.899z"/>
</g>
</svg>
