<?xml version="1.0" encoding="utf-8"?>
<!-- Generator: Adobe Illustrator 17.1.0, SVG Export Plug-In . SVG Version: 6.00 Build 0)  -->
<!DOCTYPE svg PUBLIC "-//W3C//DTD SVG 1.1//EN" "http://www.w3.org/Graphics/SVG/1.1/DTD/svg11.dtd">
<svg version="1.1" id="Layer_1" xmlns="http://www.w3.org/2000/svg" xmlns:xlink="http://www.w3.org/1999/xlink" x="0px" y="0px"
	 width="1000px" height="1000px" viewBox="0 0 1000 1000" enable-background="new 0 0 1000 1000" xml:space="preserve">
<g>
	<path d="M202.279,786.489l-35.715,85.409c-2.255,5.394,1.707,11.345,7.553,11.345h101.786c8.608,0,16.375-5.17,19.695-13.112
		l34.305-82.037H228.496C219.668,788.094,210.922,787.555,202.279,786.489z"/>
	<path d="M526.353,235.454v105.811h242.809c28.526,0,56.212,5.593,82.29,16.622c21.188,8.962,40.546,21.188,57.718,36.4V235.454
		c0-14.329-11.616-25.945-25.945-25.945H552.298C537.969,209.509,526.353,221.125,526.353,235.454z"/>
	<path d="M905.84,703.416c30.844-33.255,49.711-77.776,49.711-126.711v-24.051c0-47.148-17.515-90.2-46.381-123.025
		c-34.159-38.843-84.217-63.364-140.008-63.364H526.353h-51.687v-12.5v-12.5V148.752l110.21-0.232
		c5.643,12.801,18.436,21.741,33.324,21.741h91.761c20.109,0,36.41-16.301,36.41-36.41s-16.301-36.41-36.41-36.41l-260.699,0.167
		c-13.611,0-25.004,11.143-25.435,24.664c-0.043,0.594-0.073,1.192-0.073,1.795v217.197v12.5v12.5H228.496
		c-102.939,0-186.389,83.449-186.389,186.389v24.051c0,97.501,74.868,177.503,170.249,185.686c5.32,0.456,10.701,0.703,16.14,0.703
		h111.861H605.96c-0.177-3.041-0.277-6.096-0.277-9.165c0-20.821,4.083-41.033,12.137-60.074
		c7.773-18.379,18.896-34.879,33.061-49.043c14.164-14.164,30.664-25.287,49.043-33.061c19.041-8.053,39.252-12.137,60.074-12.137
		s41.033,4.083,60.074,12.137c18.378,7.774,34.879,18.897,49.043,33.061c14.164,14.164,25.287,30.664,33.061,49.043
		C903.509,697.01,904.724,700.199,905.84,703.416z"/>
	<path d="M885.428,722.38c-14.083-56.168-64.896-97.765-125.431-97.765c-71.418,0-129.314,57.896-129.314,129.314
		c0,3.082,0.115,6.137,0.328,9.165c0.296,4.226,0.796,8.396,1.489,12.5c0.715,4.24,1.637,8.41,2.754,12.5
		c14.985,54.838,65.153,95.149,124.744,95.149c71.418,0,129.314-57.896,129.314-129.314c0-1.085-0.015-2.167-0.041-3.247
		c-0.122-4.957-0.532-9.841-1.197-14.644C887.433,731.402,886.548,726.845,885.428,722.38z M759.998,796.58
		c-9.577,0-18.417-3.157-25.536-8.486c-4.51-3.376-8.322-7.63-11.2-12.5c-2.26-3.824-3.938-8.03-4.917-12.5
		c-0.647-2.953-0.998-6.018-0.998-9.165c0-23.555,19.096-42.651,42.651-42.651c23.555,0,42.651,19.096,42.651,42.651
		c0,2.123-0.16,4.208-0.46,6.248c-0.697,4.746-2.18,9.233-4.305,13.336c-2.8,5.406-6.72,10.133-11.457,13.879
		C779.159,793.139,769.983,796.58,759.998,796.58z"/>
</g>
</svg>
