<?xml version="1.0" encoding="utf-8"?>
<!-- Generator: Adobe Illustrator 17.1.0, SVG Export Plug-In . SVG Version: 6.00 Build 0)  -->
<!DOCTYPE svg PUBLIC "-//W3C//DTD SVG 1.1//EN" "http://www.w3.org/Graphics/SVG/1.1/DTD/svg11.dtd">
<svg version="1.1" id="Layer_1" xmlns="http://www.w3.org/2000/svg" xmlns:xlink="http://www.w3.org/1999/xlink" x="0px" y="0px"
	 width="1000px" height="1000px" viewBox="0 0 1000 1000" enable-background="new 0 0 1000 1000" xml:space="preserve">
<g>
	<path d="M915.988,146.718c-44.051-44.05-102.618-68.31-164.915-68.31s-120.865,24.26-164.916,68.311L108.84,624.036
		c-14.716,14.716-14.716,38.66,0,53.377l0.627,0.627L20.78,766.728c-10.047,10.047-14.009,24.28-10.597,38.072
		c3.412,13.793,13.551,24.537,27.123,28.742l102.905,31.884c5.956,1.846,12.134,2.781,18.363,2.781
		c15.641,0,30.586-5.841,42.081-16.444l42.931-39.602l2.943,2.943c7.128,7.129,16.608,11.055,26.693,11.055c0.001,0,0.001,0,0.002,0
		c9.448,0,18.494-3.514,25.469-9.894l332.742-304.379c36.042,21.568,77.407,32.966,119.655,32.966
		c62.604,0,121.377-24.47,165.494-68.901c43.908-44.222,68.027-102.727,67.914-164.737
		C984.386,249.203,960.055,190.784,915.988,146.718z M208.203,776.776l-41.449,38.235c-2.234,2.061-5.139,3.195-8.179,3.195
		c-1.207,0-2.406-0.183-3.564-0.541l-87.384-27.074l77.196-77.196l0.354-0.354l0.354-0.354L425.068,433.15l74.683,74.683
		L208.938,776.098l-0.368,0.339L208.203,776.776z M520.942,337.276c2.277-2.277,5.309-3.532,8.535-3.532
		c1.819,0,3.578,0.403,5.226,1.197l84.161,40.582c5.002,2.411,6.338,6.726,6.688,9.083c0.352,2.357,0.331,6.874-3.75,10.639
		l-60.253,55.582l-77.079-77.079L520.942,337.276z"/>
</g>
</svg>
