<?xml version="1.0" encoding="utf-8"?>
<!-- Generator: Adobe Illustrator 17.1.0, SVG Export Plug-In . SVG Version: 6.00 Build 0)  -->
<!DOCTYPE svg PUBLIC "-//W3C//DTD SVG 1.1//EN" "http://www.w3.org/Graphics/SVG/1.1/DTD/svg11.dtd">
<svg version="1.1" id="Layer_1" xmlns="http://www.w3.org/2000/svg" xmlns:xlink="http://www.w3.org/1999/xlink" x="0px" y="0px"
	 width="1000px" height="1000px" viewBox="0 0 1000 1000" enable-background="new 0 0 1000 1000" xml:space="preserve">
<g>
	<path d="M967.768,155.807H770.095v107.504c5.532,2.737,11.687,4.38,18.18,4.625c15.43,0.582,29.217-6.559,37.823-17.859
		c8.279,10.87,21.353,17.892,36.071,17.892s27.792-7.021,36.071-17.892c8.279,10.87,21.352,17.892,36.071,17.892
		c24.097,0,43.792-18.809,45.227-42.545h0.093v-57.757C979.629,161.117,974.319,155.807,967.768,155.807z"/>
	<path d="M65.69,267.969c14.718,0,27.792-7.021,36.071-17.892c8.279,10.87,21.352,17.892,36.071,17.892s27.792-7.021,36.071-17.892
		c8.605,11.3,22.393,18.441,37.823,17.859c6.493-0.245,12.647-1.889,18.18-4.625V155.807H32.232c-6.551,0-11.861,5.31-11.861,11.861
		v57.757h0.093C21.898,249.16,41.594,267.969,65.69,267.969z"/>
	<path d="M265.016,454.504l117.523,97.546v111.273c0,15.184,12.309,27.492,27.492,27.492h8.886h162.164h8.886
		c15.183,0,27.492-12.309,27.492-27.492V552.05l117.523-97.546c6.405-5.316,10.111-13.208,10.111-21.532V228.58v-11.716V64.117
		c0-18.877-15.303-34.18-34.18-34.18h-421.83c-18.877,0-34.18,15.303-34.18,34.18v152.746v11.716v204.392
		C254.905,441.296,258.611,449.188,265.016,454.504z M331.671,119.921c0-8.722,7.071-15.793,15.793-15.793h305.072
		c8.722,0,15.793,7.071,15.793,15.793v177.933c0,8.722-7.071,15.793-15.793,15.793H347.464c-8.722,0-15.793-7.071-15.793-15.793
		V119.921z"/>
	<path d="M500,978c13.807,0,25-11.193,25-25v-56h13.669c8.165,0,15.075-6.031,16.18-14.12l22.818-167.063H422.333L445.15,882.88
		c1.105,8.09,8.015,14.12,16.18,14.12H475v56C475,966.807,486.193,978,500,978z"/>
</g>
</svg>
