<?xml version="1.0" encoding="utf-8"?>
<!-- Generator: Adobe Illustrator 17.1.0, SVG Export Plug-In . SVG Version: 6.00 Build 0)  -->
<!DOCTYPE svg PUBLIC "-//W3C//DTD SVG 1.1//EN" "http://www.w3.org/Graphics/SVG/1.1/DTD/svg11.dtd">
<svg version="1.1" id="Layer_1" xmlns="http://www.w3.org/2000/svg" xmlns:xlink="http://www.w3.org/1999/xlink" x="0px" y="0px"
	 width="1000px" height="1000px" viewBox="0 0 1000 1000" enable-background="new 0 0 1000 1000" xml:space="preserve">
<g>
	<path d="M522.28,96.28c-11.41,0-22.714,0.451-33.898,1.327v88.949c0,21.732-16.996,39.709-38.691,40.926
		c-29.175,1.637-57.344,8.456-83.724,20.268c-26.443,11.841-50.397,28.391-71.197,49.19c-20.8,20.8-37.35,44.754-49.191,71.197
		c-11.812,26.379-18.632,54.548-20.268,83.723c-1.217,21.696-19.194,38.692-40.926,38.692H95.437
		c-0.876,11.185-1.328,22.489-1.328,33.899c0,236.473,191.699,428.171,428.171,428.171s428.171-191.699,428.171-428.171
		S758.753,96.28,522.28,96.28z M706.13,708.301c-49.108,49.108-114.4,76.153-183.85,76.153s-134.741-27.045-183.85-76.153
		s-76.153-114.4-76.153-183.85s27.045-134.741,76.153-183.85c49.108-49.108,114.4-76.153,183.85-76.153
		s134.741,27.045,183.85,76.153c49.108,49.108,76.153,114.4,76.153,183.85S755.238,659.193,706.13,708.301z"/>
	<path d="M522.28,314.449c-115.796,0-210.003,94.207-210.003,210.002s94.207,210.002,210.003,210.002
		s210.003-94.207,210.003-210.002S638.076,314.449,522.28,314.449z M522.28,359.828c12.982,0,23.507,10.524,23.507,23.507
		c0,12.982-10.524,23.507-23.507,23.507s-23.507-10.524-23.507-23.507C498.773,370.353,509.298,359.828,522.28,359.828z
		 M379.77,549.352c-12.982,0-23.507-10.524-23.507-23.507c0-12.982,10.524-23.507,23.507-23.507
		c12.982,0,23.506,10.524,23.506,23.507C403.276,538.828,392.752,549.352,379.77,549.352z M522.28,691.863
		c-12.982,0-23.507-10.524-23.507-23.507s10.524-23.507,23.507-23.507s23.507,10.524,23.507,23.507S535.263,691.863,522.28,691.863z
		 M522.28,599.485c-41.44,0-75.034-33.594-75.034-75.034c0-41.44,33.594-75.034,75.034-75.034s75.034,33.594,75.034,75.034
		C597.314,565.891,563.721,599.485,522.28,599.485z M688.297,525.845c0,12.982-10.524,23.507-23.507,23.507
		c-12.982,0-23.506-10.524-23.506-23.507c0-12.982,10.524-23.507,23.506-23.507C677.773,502.339,688.297,512.863,688.297,525.845z"
		/>
	<path d="M51.515,465.553h46.617h86.253c8.483,0,15.49-6.622,15.965-15.092c3.629-64.697,30.556-125.011,76.742-171.198
		c46.187-46.186,106.501-73.112,171.198-76.741c8.47-0.475,15.092-7.482,15.092-15.965v-86.253V53.686
		c0-8.831-7.144-16.004-15.897-16.004c-0.202,0-0.405,0.004-0.609,0.012C223.529,46.16,43.989,225.7,35.523,449.046
		C35.181,458.075,42.48,465.553,51.515,465.553z"/>
</g>
</svg>
