<?xml version="1.0" encoding="utf-8"?>
<!-- Generator: Adobe Illustrator 17.1.0, SVG Export Plug-In . SVG Version: 6.00 Build 0)  -->
<!DOCTYPE svg PUBLIC "-//W3C//DTD SVG 1.1//EN" "http://www.w3.org/Graphics/SVG/1.1/DTD/svg11.dtd">
<svg version="1.1" id="Layer_1" xmlns="http://www.w3.org/2000/svg" xmlns:xlink="http://www.w3.org/1999/xlink" x="0px" y="0px"
	 width="1000px" height="1000px" viewBox="0 0 1000 1000" enable-background="new 0 0 1000 1000" xml:space="preserve">
<g>
	<path d="M154.59,461.554h15.44v273.777h186.655v-171.87c4.077-0.768,8.334-1.755,12.5-3.022c4.38-1.333,8.652-2.978,12.5-5.002
		c12.779-6.721,20.845-17.645,12.341-35.406c-6.271-13.099-9.502-24.245-10.957-33.477c-0.734-4.654-1.022-8.826-1.005-12.5
		c0.024-5.116,0.621-9.279,1.367-12.5h228.71c11.099,0,20.096-8.997,20.096-20.096V439.1V137.582v-2.358
		c0-11.099-8.997-20.096-20.096-20.096H154.59c-70.854,0-128.293,57.439-128.293,128.293v89.84
		C26.297,404.115,83.736,461.554,154.59,461.554z M333.956,220.26c9.763-9.763,25.592-9.763,35.355,0
		c9.763,9.763,9.763,25.592,0,35.355l-74.373,74.373c-4.881,4.881-11.28,7.322-17.678,7.322s-12.796-2.441-17.678-7.322
		c-9.763-9.763-9.763-25.592,0-35.355L333.956,220.26z M138.38,294.633l74.373-74.373c9.763-9.763,25.592-9.763,35.355,0
		c9.763,9.763,9.763,25.592,0,35.355l-74.373,74.373c-4.881,4.881-11.28,7.322-17.678,7.322s-12.796-2.441-17.678-7.322
		C128.617,320.225,128.617,304.396,138.38,294.633z"/>
	<path d="M539.215,936.814V790.492c0-16.657-13.503-30.161-30.161-30.161h-127.37h-12.5h-12.5H170.03h-12.5h-12.5h-11.283
		c-16.657,0-30.161,13.503-30.161,30.161v146.323c0,16.657,13.503,30.161,30.161,30.161h375.307
		C525.712,966.975,539.215,953.472,539.215,936.814z"/>
	<path d="M959.417,262.841H780.838c-10.733-62.993-60.538-112.658-123.601-123.184v297.368
		c63.063-10.526,112.869-60.191,123.601-123.184h178.579c14.083,0,25.5-11.417,25.5-25.5S973.5,262.841,959.417,262.841z"/>
</g>
</svg>
