<?xml version="1.0" encoding="utf-8"?>
<!-- Generator: Adobe Illustrator 17.1.0, SVG Export Plug-In . SVG Version: 6.00 Build 0)  -->
<!DOCTYPE svg PUBLIC "-//W3C//DTD SVG 1.1//EN" "http://www.w3.org/Graphics/SVG/1.1/DTD/svg11.dtd">
<svg version="1.1" id="Layer_1" xmlns="http://www.w3.org/2000/svg" xmlns:xlink="http://www.w3.org/1999/xlink" x="0px" y="0px"
	 width="1000px" height="1000px" viewBox="0 0 1000 1000" enable-background="new 0 0 1000 1000" xml:space="preserve">
<g>
	<path d="M872.998,23.954L127.003,23.95c-12.847,0-23.826,9.261-25.99,21.925c-3.811,22.311-5.796,45.244-5.796,68.642
		c0,89.48,30.074,177.528,84.996,248.189c37.469,48.207,90.985,79.211,135.705,119.741c41.243,37.379,62.397,77.425,74.786,130.859
		c22.388,96.556,26.813,197.796,29.41,296.561c0.467,17.741-0.11,35.777,0.343,53.648c0.215,8.469,9.713,13.342,16.696,8.546
		c33.969-23.329,113.479-77.931,141.486-97.165c6.426-4.413,10.563-11.435,11.302-19.196c6.163-64.745,14.068-239.202,27.092-281.09
		c28.804-92.641,134.068-129.735,192.947-199.773c60.998-72.558,94.802-165.541,94.802-260.32c0-23.396-1.985-46.329-5.796-68.638
		C896.824,33.215,885.845,23.954,872.998,23.954z"/>
</g>
</svg>
