<?xml version="1.0" encoding="utf-8"?>
<!-- Generator: Adobe Illustrator 17.1.0, SVG Export Plug-In . SVG Version: 6.00 Build 0)  -->
<!DOCTYPE svg PUBLIC "-//W3C//DTD SVG 1.1//EN" "http://www.w3.org/Graphics/SVG/1.1/DTD/svg11.dtd">
<svg version="1.1" id="Layer_1" xmlns="http://www.w3.org/2000/svg" xmlns:xlink="http://www.w3.org/1999/xlink" x="0px" y="0px"
	 width="1000px" height="1000px" viewBox="0 0 1000 1000" enable-background="new 0 0 1000 1000" xml:space="preserve">
<g>
	<path d="M500,975c262.335,0,475-212.665,475-475S762.335,25,500,25S25,237.665,25,500S237.665,975,500,975z M216.848,216.848
		c36.768-36.769,79.59-65.639,127.276-85.809C393.507,110.152,445.951,99.562,500,99.562s106.493,10.591,155.876,31.478
		c47.687,20.17,90.509,49.04,127.276,85.809c36.769,36.768,65.639,79.59,85.809,127.276
		c20.887,49.383,31.478,101.827,31.478,155.876s-10.591,106.493-31.478,155.876c-20.17,47.687-49.04,90.509-85.809,127.276
		c-36.768,36.769-79.59,65.639-127.276,85.809C606.493,889.848,554.049,900.438,500,900.438s-106.493-10.591-155.876-31.478
		c-47.687-20.17-90.509-49.04-127.276-85.809c-36.769-36.768-65.639-79.59-85.809-127.276
		C110.152,606.493,99.562,554.049,99.562,500s10.591-106.493,31.478-155.876C151.209,296.438,180.079,253.615,216.848,216.848z"/>
	<path d="M500,855.438c94.941,0,184.199-36.972,251.333-104.105S855.438,594.941,855.438,500s-36.972-184.199-104.105-251.333
		S594.941,144.562,500,144.562s-184.199,36.972-251.333,104.105S144.562,405.059,144.562,500s36.972,184.199,104.105,251.333
		S405.059,855.438,500,855.438z M606.413,749.102c0,5.798-4.7,10.498-10.498,10.498h-191.83c-5.798,0-10.498-4.7-10.498-10.498
		V737.35c0-5.798,4.7-10.498,10.498-10.498h0.212c5.798,0,10.498-4.7,10.498-10.498V495.02c0-5.798,4.7-10.498,10.498-10.498
		h149.415c5.798,0,10.498,4.7,10.498,10.498v221.334c0,5.798,4.7,10.498,10.498,10.498h0.212c5.798,0,10.498,4.7,10.498,10.498
		V749.102z M320.016,293.354c0-6.903,5.597-12.5,12.5-12.5s12.5,5.597,12.5,12.5v64.694h58.991v-26.097
		c0-6.903,5.597-12.5,12.5-12.5s12.5,5.597,12.5,12.5v26.097H487.5v-64.694c0-6.903,5.597-12.5,12.5-12.5s12.5,5.597,12.5,12.5
		v64.694h58.493v-26.097c0-6.903,5.597-12.5,12.5-12.5s12.5,5.597,12.5,12.5v26.097h58.991v-64.694c0-6.903,5.597-12.5,12.5-12.5
		s12.5,5.597,12.5,12.5v77.194c0,6.903-5.597,12.5-12.5,12.5h-83.991H500h-83.493h-83.991c-6.903,0-12.5-5.597-12.5-12.5V293.354z"
		/>
	<path d="M551.932,508.522H448.068c-4.414,0-7.992,3.578-7.992,7.992v55.297c0,4.414,3.578,7.992,7.992,7.992h103.863
		c4.414,0,7.992-3.578,7.992-7.992v-55.297C559.924,512.101,556.346,508.522,551.932,508.522z"/>
</g>
</svg>
