<?xml version="1.0" encoding="utf-8"?>
<!-- Generator: Adobe Illustrator 17.1.0, SVG Export Plug-In . SVG Version: 6.00 Build 0)  -->
<!DOCTYPE svg PUBLIC "-//W3C//DTD SVG 1.1//EN" "http://www.w3.org/Graphics/SVG/1.1/DTD/svg11.dtd">
<svg version="1.1" id="Layer_1" xmlns="http://www.w3.org/2000/svg" xmlns:xlink="http://www.w3.org/1999/xlink" x="0px" y="0px"
	 width="1000px" height="1000px" viewBox="0 0 1000 1000" enable-background="new 0 0 1000 1000" xml:space="preserve">
<g>
	<path d="M56.423,734.131c27.39,6.764,55.077-9.957,61.841-37.347c3.257-13.188,1.057-26.438-5.145-37.395l75.471-45.579
		c6.442,25.844,12.884,51.687,19.326,77.531c19.768,79.304,40.062,158.541,58.954,238.027c2.502,10.528,8.098,23.399,20.747,23.422
		c9.747,0.018,17.074-8.015,18.066-17.363c1.091-10.283-13.058-127.201-15.817-157.799c-0.425-4.71,4.678-7.911,8.736-5.482
		c23.265,13.926,46.817,27.373,70.433,40.693c25.406,14.329,50.917,28.478,76.553,42.391c9.45,5.129,18.915,10.233,28.433,15.235
		c9.447,4.965,22.183,13.854,31.417,4.121c5.717-6.027,6.392-17.617-0.623-23.145c-27.201-21.436-224.389-182.657-224.389-182.657
		c-1.2-14.437-2.378-28.875-3.537-43.315l52.532-31.725l-90.627-150.064l-65.617,39.628c-12.227,7.384-14.739,9.54-12.169,19.851
		c4.665,18.714,9.329,37.427,13.994,56.141c0.213,0.855-14.795,8.935-15.812,9.549c-12.44,7.513-24.88,15.026-37.32,22.538
		c-18.711,11.3-37.423,22.601-56.134,33.901c-19.361,11.693-40.765,23.128-46.661,47.002
		C12.311,699.68,29.032,727.367,56.423,734.131z"/>
	<path d="M964.394,98.793l-199.625,45.141l74.781,123.825l132.877-155.666C977.326,105.003,972.95,97.757,964.394,98.793z"/>
	<path d="M837.916,313.414l-15.471-25.618l-83.373-138.052l-15.471-25.618c-2.844-4.71-7.847-7.316-12.975-7.316
		c-2.666,0-5.365,0.704-7.813,2.182l-449.33,271.362c-7.158,4.323-9.456,13.63-5.133,20.788l11.844,19.611l90.627,150.064
		l11.844,19.612c2.844,4.71,7.847,7.316,12.975,7.316c2.666,0,5.365-0.704,7.813-2.182l449.33-271.362
		C839.941,329.879,842.239,320.572,837.916,313.414z"/>
</g>
</svg>
