<?xml version="1.0" encoding="utf-8"?>
<!-- Generator: Adobe Illustrator 16.0.4, SVG Export Plug-In . SVG Version: 6.00 Build 0)  -->
<!DOCTYPE svg PUBLIC "-//W3C//DTD SVG 1.1//EN" "http://www.w3.org/Graphics/SVG/1.1/DTD/svg11.dtd">
<svg version="1.1" id="Layer_1" xmlns="http://www.w3.org/2000/svg" xmlns:xlink="http://www.w3.org/1999/xlink" x="0px" y="0px"
	 width="100px" height="100px" viewBox="0 0 100 100" enable-background="new 0 0 100 100" xml:space="preserve">
<g>
	<path d="M83.675,96.047l9.267-9.267c1.181-1.18,1.342-2.956,0.336-3.95c0,0-15.527-14.073-30.656-27.8L51.913,65.738l27.8,30.669
		C80.706,97.389,82.495,97.227,83.675,96.047z"/>
	<path d="M6.823,85.352c-0.969,0.969-0.969,2.521,0,3.479l7.502,7.502c0.472,0.473,1.118,0.721,1.739,0.721s1.267-0.235,1.739-0.721
		l32.445-32.444L60.77,53.366l10.757-10.757l-10.98-10.993L49.242,42.919l-9.44,9.441L6.823,85.352z"/>
	<path d="M53.926,21.455c0.583,0.584,1.366,0.882,2.136,0.882c0.771,0,1.541-0.298,2.137-0.882l1.131-1.13l3.59,3.59l-1.131,1.13
		c-0.72,0.721-1.006,1.727-0.832,2.658c0.074,0.435,0.248,0.857,0.521,1.229c0.087,0.125,0.199,0.249,0.311,0.373l0.534,0.534
		l10.993,10.993l0.87,0.869l0.396,0.397c0.175,0.174,0.349,0.311,0.535,0.422c0.484,0.311,1.043,0.459,1.602,0.459
		c0.771,0,1.54-0.298,2.137-0.882l0.373-0.373c6.186,8.348,5.788,14.136,7.056,14.136c0.583,0,1.54-1.268,3.701-4.1
		c6.272-8.31,3.963-16.521,1.031-21.825l0.646-0.646c1.18-1.18,1.18-3.093,0-4.261L78.855,12.238
		c-0.584-0.584-1.366-0.882-2.137-0.882c-0.77,0-1.54,0.298-2.137,0.882l-1.13,1.13L69.85,9.804l1.143-1.143
		c1.181-1.18,1.181-3.093,0-4.261l-0.571-0.571c-0.583-0.584-1.366-0.882-2.136-0.882c-0.771,0-1.541,0.298-2.137,0.882
		L53.354,16.623c-1.18,1.18-1.18,3.093,0,4.261L53.926,21.455z"/>
	<path d="M38.448,50.373l9.217-9.217c-6.956-6.298-11.826-10.708-11.826-10.708c-2.521-2.571-2.086-6.335-4.037-9.142
		c-1.702-2.447-4.596-3.702-7.056-5.205c-3.913-2.385-7.838-4.77-11.751-7.155c-0.521-0.323-1.205-0.236-1.64,0.199l-4.931,4.931
		c-0.435,0.435-0.522,1.118-0.199,1.64c2.298,3.776,4.596,7.54,6.881,11.316c1.416,2.311,2.783,5.727,5.093,7.267
		c2.919,1.95,6.919,1.714,9.503,4.224c0.025,0.025,0.037,0.05,0.074,0.075L38.448,50.373z"/>
</g>
</svg>
