<?xml version="1.0" encoding="utf-8"?>
<!-- Generator: Adobe Illustrator 17.1.0, SVG Export Plug-In . SVG Version: 6.00 Build 0)  -->
<!DOCTYPE svg PUBLIC "-//W3C//DTD SVG 1.1//EN" "http://www.w3.org/Graphics/SVG/1.1/DTD/svg11.dtd">
<svg version="1.1" id="Layer_1" xmlns="http://www.w3.org/2000/svg" xmlns:xlink="http://www.w3.org/1999/xlink" x="0px" y="0px"
	 width="1000px" height="1000px" viewBox="0 0 1000 1000" enable-background="new 0 0 1000 1000" xml:space="preserve">
<g>
	<path d="M140.817,935.274c12.932,12.932,33.899,12.932,46.831,0l451.175-451.175L491.015,336.29L39.84,787.465
		c-12.932,12.932-12.932,33.899,0,46.831L140.817,935.274z"/>
	<path d="M508.803,318.722l147.589,147.589l98.668,98.668c5.55,5.55,12.824,8.325,20.098,8.325c7.274,0,14.548-2.775,20.098-8.325
		L961.535,398.7c11.1-11.1,11.1-29.097,0-40.197L660.382,57.351c-5.551-5.551-12.823-8.326-20.098-8.325
		c-7.273,0.001-14.549,2.776-20.098,8.325l-26.727,26.727c-23.849,22.782-78.71,69.884-124.665,69.884
		c-2.189,0-4.367-0.107-6.511-0.329c-19.072-1.973-44.571-9.577-70.677-19.131c-3.083-1.128-6.088-1.643-8.954-1.643
		c-20.38,0-33.684,26.028-17.178,42.535L508.803,318.722z M750.561,245.104c9.764-9.763,25.592-9.763,35.355,0L905.03,364.218
		c9.763,9.763,9.763,25.592,0,35.355l-59.557,59.557c-4.882,4.881-11.28,7.322-17.678,7.322s-12.796-2.441-17.678-7.322
		c-9.763-9.763-9.763-25.592,0-35.355l8.839-8.839l33.04-33.04l-66.081-66.081l-35.355-35.355
		C740.798,270.696,740.798,254.867,750.561,245.104z"/>
</g>
</svg>
