<?xml version="1.0" encoding="utf-8"?>
<!-- Generator: Adobe Illustrator 17.1.0, SVG Export Plug-In . SVG Version: 6.00 Build 0)  -->
<!DOCTYPE svg PUBLIC "-//W3C//DTD SVG 1.1//EN" "http://www.w3.org/Graphics/SVG/1.1/DTD/svg11.dtd">
<svg version="1.1" id="Layer_1" xmlns="http://www.w3.org/2000/svg" xmlns:xlink="http://www.w3.org/1999/xlink" x="0px" y="0px"
	 width="1000px" height="1000px" viewBox="0 0 1000 1000" enable-background="new 0 0 1000 1000" xml:space="preserve">
<g>
	<path d="M359.604,458.001h280.793c9.38,0,16.983-7.604,16.983-16.983v-38.033c0-9.38-7.604-16.983-16.983-16.983H359.604
		c-9.38,0-16.983,7.604-16.983,16.983v38.033C342.62,450.397,350.224,458.001,359.604,458.001z M552.114,401.832h19.157
		c9.069,0,16.42,7.352,16.42,16.42s-7.352,16.42-16.42,16.42h-19.157c-9.069,0-16.42-7.352-16.42-16.42
		S543.045,401.832,552.114,401.832z"/>
	<path d="M55,707c13.807,0,25-11.193,25-25v-24.085c0.675,0.05,1.355,0.085,2.043,0.085h835.914c0.688,0,1.368-0.034,2.043-0.085
		V682c0,13.807,11.193,25,25,25s25-11.193,25-25V338c0-13.807-11.193-25-25-25s-25,11.193-25,25v24.085
		c-0.675-0.05-1.355-0.085-2.043-0.085H685.38v96.161c0,17.585-14.255,31.84-31.84,31.84H346.46c-17.585,0-31.84-14.255-31.84-31.84
		V362H82.043c-0.688,0-1.368,0.034-2.043,0.085V338c0-13.807-11.193-25-25-25s-25,11.193-25,25v344C30,695.807,41.193,707,55,707z"
		/>
</g>
</svg>
