<?xml version="1.0" encoding="utf-8"?>
<!-- Generator: Adobe Illustrator 17.1.0, SVG Export Plug-In . SVG Version: 6.00 Build 0)  -->
<!DOCTYPE svg PUBLIC "-//W3C//DTD SVG 1.1//EN" "http://www.w3.org/Graphics/SVG/1.1/DTD/svg11.dtd">
<svg version="1.1" id="Layer_1" xmlns="http://www.w3.org/2000/svg" xmlns:xlink="http://www.w3.org/1999/xlink" x="0px" y="0px"
	 width="1000px" height="1000px" viewBox="0 0 1000 1000" enable-background="new 0 0 1000 1000" xml:space="preserve">
<g>
	<path d="M648.85,310.614H900.64c9.542,0,17.278-7.736,17.278-17.278v-46.801c0-9.542-7.736-17.278-17.278-17.278H618.538
		c4.67,9.079,9.083,18.769,13.207,29.097C638.189,274.489,643.903,291.994,648.85,310.614z"/>
	<path d="M961.693,399.911c0-9.542-7.736-17.278-17.278-17.278H663.345c3.759,26.027,6.253,53.305,7.404,81.357h273.665
		c9.542,0,17.278-7.736,17.278-17.278V399.911z"/>
	<path d="M961.693,600.089v-46.801c0-9.543-7.736-17.278-17.278-17.278H670.75c-1.151,28.053-3.646,55.331-7.404,81.357h281.069
		C953.957,617.367,961.693,609.631,961.693,600.089z"/>
	<path d="M917.919,753.465v-46.801c0-9.542-7.736-17.278-17.278-17.278H648.85c-4.947,18.62-10.661,36.125-17.105,52.261
		c-4.124,10.328-8.537,20.018-13.207,29.097H900.64C910.183,770.744,917.919,763.008,917.919,753.465z"/>
	<path d="M494.638,838c39.535,0,71.35-25.774,95.446-67.256c13.3-22.896,24.245-50.582,32.842-81.357
		c6.303-22.566,11.343-46.794,15.117-72.019c3.933-26.29,6.494-53.66,7.68-81.357c1.025-23.926,1.025-48.094,0-72.02
		c-1.186-27.697-3.747-55.068-7.68-81.357c-3.774-25.225-8.813-49.453-15.117-72.019c-8.596-30.776-19.542-58.461-32.842-81.357
		C565.988,187.774,534.172,162,494.638,162C292.166,162,36.105,313.328,36.105,500S292.166,838,494.638,838z"/>
</g>
</svg>
