<?xml version="1.0" encoding="utf-8"?>
<!-- Generator: Adobe Illustrator 17.1.0, SVG Export Plug-In . SVG Version: 6.00 Build 0)  -->
<!DOCTYPE svg PUBLIC "-//W3C//DTD SVG 1.1//EN" "http://www.w3.org/Graphics/SVG/1.1/DTD/svg11.dtd">
<svg version="1.1" id="Layer_1" xmlns="http://www.w3.org/2000/svg" xmlns:xlink="http://www.w3.org/1999/xlink" x="0px" y="0px"
	 width="1000px" height="1000px" viewBox="0 0 1000 1000" enable-background="new 0 0 1000 1000" xml:space="preserve">
<g>
	<path d="M25.49,594.352c0.47,4.986,1.029,9.964,1.677,14.932c0.216,1.656,0.442,3.311,0.678,4.964
		c0.472,3.307,0.984,6.61,1.535,9.906c1.448,8.654,3.169,17.268,5.164,25.829c0.665,2.854,1.36,5.701,2.086,8.542
		c7.246,28.36,17.526,56.071,30.847,82.602c2.049,4.082,4.171,8.135,6.364,12.159s4.459,8.018,6.796,11.98
		c17.531,29.717,39.113,57.645,64.76,82.967c1.261,1.245,2.529,2.481,3.802,3.707c0.213,0.205,0.429,0.406,0.643,0.611
		c1.06,1.016,2.121,2.029,3.189,3.032c0.462,0.434,0.928,0.859,1.392,1.29c0.824,0.767,1.646,1.535,2.475,2.294
		c0.58,0.531,1.164,1.052,1.746,1.579c0.718,0.65,1.433,1.303,2.154,1.947c0.674,0.602,1.354,1.194,2.031,1.79
		c0.634,0.558,1.265,1.121,1.901,1.675c0.779,0.677,1.563,1.345,2.345,2.016c0.539,0.462,1.076,0.93,1.617,1.389
		c0.835,0.709,1.677,1.407,2.516,2.108c0.495,0.413,0.986,0.831,1.483,1.241c0.892,0.738,1.79,1.465,2.686,2.194
		c0.447,0.364,0.892,0.732,1.34,1.094c0.944,0.761,1.894,1.512,2.843,2.263c0.406,0.322,0.809,0.648,1.216,0.967
		c1.002,0.787,2.009,1.563,3.016,2.34c0.358,0.276,0.713,0.556,1.072,0.831c1.05,0.803,2.104,1.597,3.16,2.389
		c0.32,0.24,0.638,0.485,0.959,0.724c1.084,0.809,2.173,1.607,3.262,2.403c0.296,0.216,0.59,0.437,0.887,0.652
		c1.127,0.819,2.26,1.628,3.393,2.435c0.261,0.186,0.521,0.375,0.782,0.561c1.167,0.826,2.338,1.642,3.512,2.454
		c0.232,0.16,0.462,0.324,0.693,0.484c1.195,0.824,2.395,1.637,3.597,2.448c0.213,0.143,0.424,0.29,0.637,0.433
		c1.231,0.826,2.466,1.642,3.704,2.454c0.186,0.122,0.37,0.246,0.555,0.367c1.252,0.818,2.509,1.626,3.768,2.429
		c0.174,0.111,0.346,0.224,0.521,0.335c1.276,0.811,2.557,1.612,3.84,2.408c0.158,0.098,0.316,0.199,0.474,0.297
		c1.29,0.798,2.583,1.585,3.88,2.367c0.154,0.093,0.308,0.188,0.462,0.281c1.322,0.795,2.648,1.58,3.977,2.359
		c0.128,0.075,0.256,0.153,0.384,0.228c1.347,0.788,2.698,1.565,4.051,2.336c0.113,0.064,0.225,0.13,0.338,0.194
		c1.343,0.763,2.69,1.517,4.04,2.264c0.127,0.07,0.253,0.142,0.38,0.213c1.351,0.746,2.706,1.482,4.063,2.211
		c0.125,0.068,0.25,0.137,0.376,0.204c1.368,0.734,2.74,1.457,4.115,2.175c0.115,0.06,0.229,0.122,0.344,0.181
		c1.381,0.719,2.766,1.427,4.154,2.13c0.11,0.056,0.22,0.113,0.331,0.169c1.385,0.699,2.774,1.389,4.166,2.072
		c0.114,0.056,0.228,0.114,0.343,0.17c1.382,0.677,2.769,1.344,4.157,2.004c0.125,0.06,0.25,0.121,0.375,0.18
		c1.37,0.65,2.745,1.291,4.121,1.925c0.145,0.067,0.29,0.136,0.435,0.203c1.375,0.632,2.754,1.254,4.135,1.871
		c0.145,0.065,0.289,0.131,0.433,0.195c1.37,0.61,2.743,1.209,4.118,1.803c0.159,0.069,0.318,0.139,0.477,0.208
		c1.368,0.588,2.739,1.167,4.112,1.74c0.167,0.07,0.333,0.141,0.499,0.21c1.363,0.567,2.729,1.124,4.097,1.676
		c0.179,0.072,0.356,0.146,0.535,0.218c1.359,0.546,2.721,1.082,4.085,1.613c0.188,0.073,0.376,0.148,0.564,0.222
		c1.341,0.52,2.685,1.03,4.03,1.535c0.215,0.081,0.429,0.164,0.644,0.244c1.334,0.499,2.671,0.988,4.01,1.472
		c0.224,0.081,0.448,0.165,0.673,0.246c1.308,0.471,2.619,0.932,3.932,1.39c0.261,0.091,0.521,0.184,0.782,0.275
		c1.298,0.45,2.599,0.89,3.901,1.326c0.271,0.091,0.542,0.185,0.814,0.275c1.284,0.427,2.571,0.845,3.858,1.26
		c0.294,0.095,0.587,0.192,0.881,0.286c1.26,0.403,2.522,0.795,3.785,1.186c0.324,0.1,0.647,0.203,0.972,0.302
		c1.243,0.381,2.489,0.752,3.735,1.121c0.344,0.102,0.686,0.206,1.03,0.307c1.229,0.36,2.461,0.711,3.693,1.06
		c0.362,0.103,0.724,0.208,1.087,0.31c1.204,0.337,2.41,0.665,3.616,0.991c0.395,0.107,0.79,0.217,1.186,0.322
		c1.176,0.314,2.354,0.619,3.531,0.922c0.427,0.11,0.853,0.223,1.28,0.332c1.153,0.293,2.308,0.577,3.463,0.86
		c0.453,0.111,0.905,0.225,1.358,0.334c1.128,0.272,2.259,0.536,3.389,0.799c0.483,0.112,0.965,0.228,1.448,0.338
		c1.105,0.253,2.212,0.497,3.319,0.741c0.509,0.112,1.016,0.227,1.525,0.337c1.084,0.234,2.169,0.46,3.254,0.686
		c0.534,0.111,1.068,0.225,1.603,0.334c1.06,0.216,2.122,0.423,3.183,0.631c0.561,0.11,1.121,0.222,1.682,0.329
		c1.038,0.199,2.078,0.389,3.117,0.58c0.586,0.107,1.172,0.218,1.759,0.323c1.017,0.182,2.035,0.356,3.054,0.53
		c0.609,0.104,1.219,0.211,1.829,0.313c0.991,0.165,1.983,0.322,2.975,0.48c0.641,0.102,1.282,0.207,1.924,0.306
		c0.964,0.149,1.928,0.29,2.892,0.432c0.669,0.098,1.337,0.199,2.006,0.294c0.944,0.134,1.888,0.261,2.833,0.388
		c0.691,0.093,1.382,0.189,2.074,0.279c0.925,0.12,1.85,0.233,2.776,0.347c0.711,0.088,1.422,0.177,2.134,0.261
		c0.906,0.107,1.813,0.207,2.719,0.307c0.733,0.082,1.466,0.165,2.2,0.243c0.888,0.094,1.777,0.181,2.666,0.269
		c0.751,0.074,1.502,0.151,2.254,0.222c0.873,0.082,1.747,0.157,2.621,0.233c0.769,0.067,1.538,0.136,2.307,0.199
		c0.855,0.07,1.711,0.133,2.567,0.198c0.787,0.059,1.574,0.121,2.361,0.176c0.843,0.059,1.685,0.111,2.528,0.165
		c0.802,0.051,1.603,0.104,2.405,0.15c0.83,0.048,1.659,0.09,2.489,0.133c0.814,0.042,1.628,0.086,2.443,0.123
		c0.822,0.038,1.645,0.069,2.468,0.102c0.821,0.033,1.642,0.067,2.462,0.095c0.819,0.028,1.638,0.05,2.457,0.073
		c0.826,0.023,1.651,0.048,2.477,0.066c0.811,0.018,1.621,0.03,2.432,0.043c0.835,0.014,1.67,0.028,2.506,0.037
		c0.804,0.008,1.607,0.01,2.411,0.014c0.629,0.003,1.258,0.011,1.887,0.011c0.21,0,0.421-0.003,0.632-0.004
		c0.818-0.001,1.635-0.008,2.453-0.014c0.833-0.006,1.667-0.011,2.5-0.022c0.815-0.011,1.629-0.028,2.444-0.044
		c0.835-0.016,1.671-0.031,2.507-0.052c0.814-0.021,1.628-0.048,2.442-0.073c0.835-0.026,1.671-0.051,2.506-0.082
		c0.809-0.03,1.618-0.066,2.427-0.101c0.843-0.036,1.686-0.071,2.529-0.113c0.795-0.039,1.59-0.084,2.385-0.128
		c0.856-0.047,1.711-0.093,2.567-0.145c0.784-0.048,1.568-0.102,2.351-0.154c0.866-0.058,1.731-0.115,2.597-0.178
		c0.771-0.056,1.541-0.119,2.312-0.179c0.879-0.069,1.758-0.137,2.636-0.212c0.753-0.064,1.506-0.135,2.26-0.203
		c0.896-0.081,1.792-0.161,2.688-0.249c0.73-0.071,1.46-0.148,2.191-0.223c0.917-0.094,1.833-0.187,2.75-0.287
		c0.714-0.078,1.427-0.162,2.14-0.244c0.931-0.107,1.861-0.212,2.792-0.325c0.695-0.084,1.39-0.175,2.084-0.262
		c0.949-0.12,1.898-0.239,2.846-0.366c0.67-0.089,1.339-0.185,2.008-0.277c0.973-0.135,1.946-0.269,2.917-0.41
		c0.645-0.094,1.289-0.194,1.933-0.291c0.995-0.15,1.99-0.299,2.984-0.456c0.62-0.098,1.239-0.201,1.859-0.302
		c1.016-0.165,2.032-0.33,3.047-0.503c0.598-0.102,1.196-0.209,1.793-0.314c1.037-0.181,2.074-0.362,3.109-0.552
		c0.568-0.104,1.135-0.213,1.703-0.319c1.064-0.199,2.128-0.398,3.19-0.605c0.539-0.105,1.077-0.216,1.616-0.323
		c1.09-0.217,2.18-0.435,3.269-0.661c0.508-0.105,1.015-0.216,1.523-0.323c1.116-0.236,2.232-0.473,3.346-0.719
		c0.484-0.107,0.968-0.218,1.452-0.327c1.138-0.255,2.275-0.511,3.411-0.775c0.454-0.105,0.906-0.216,1.36-0.323
		c1.163-0.275,2.326-0.551,3.487-0.837c0.432-0.106,0.864-0.217,1.296-0.325c1.18-0.294,2.36-0.59,3.538-0.894
		c0.406-0.105,0.812-0.214,1.218-0.321c1.205-0.315,2.41-0.633,3.613-0.959c0.371-0.101,0.74-0.205,1.11-0.307
		c1.234-0.338,2.467-0.679,3.698-1.03c0.348-0.099,0.696-0.202,1.044-0.302c1.253-0.36,2.505-0.723,3.755-1.095
		c0.317-0.094,0.633-0.192,0.95-0.287c1.28-0.384,2.56-0.772,3.836-1.169c0.286-0.089,0.57-0.181,0.855-0.27
		c1.304-0.408,2.607-0.821,3.908-1.242c0.268-0.087,0.535-0.177,0.803-0.264c1.318-0.43,2.634-0.864,3.948-1.308
		c0.245-0.083,0.489-0.169,0.734-0.252c1.335-0.454,2.668-0.911,3.999-1.379c0.224-0.079,0.448-0.161,0.672-0.24
		c1.35-0.477,2.699-0.959,4.046-1.45c0.201-0.074,0.402-0.15,0.604-0.224c1.368-0.502,2.734-1.008,4.097-1.525
		c0.179-0.068,0.357-0.138,0.536-0.206c1.384-0.527,2.767-1.059,4.147-1.601c0.158-0.062,0.315-0.126,0.472-0.188
		c1.398-0.552,2.795-1.109,4.188-1.676c0.146-0.06,0.292-0.121,0.438-0.181c1.403-0.573,2.805-1.152,4.203-1.742
		c0.138-0.058,0.276-0.119,0.414-0.177c1.406-0.594,2.81-1.195,4.21-1.806c0.123-0.054,0.246-0.109,0.37-0.163
		c1.413-0.617,2.823-1.241,4.23-1.875c0.122-0.055,0.244-0.112,0.367-0.167c1.408-0.636,2.814-1.279,4.216-1.932
		c0.112-0.052,0.223-0.106,0.335-0.158c1.413-0.659,2.824-1.325,4.231-2.002c0.09-0.043,0.181-0.088,0.271-0.132
		c1.425-0.686,2.848-1.379,4.266-2.083c0.089-0.044,0.177-0.089,0.265-0.133c1.421-0.706,2.84-1.419,4.254-2.142
		c0.076-0.039,0.152-0.079,0.229-0.118c1.423-0.729,2.844-1.465,4.26-2.211c0.091-0.048,0.182-0.098,0.273-0.146
		c1.403-0.74,2.802-1.488,4.198-2.246c0.088-0.048,0.175-0.097,0.263-0.145c1.398-0.76,2.793-1.528,4.184-2.305
		c0.087-0.049,0.174-0.099,0.261-0.148c1.391-0.779,2.778-1.565,4.162-2.361c0.088-0.051,0.175-0.103,0.263-0.153
		c1.381-0.796,2.759-1.599,4.132-2.412c0.104-0.062,0.207-0.125,0.311-0.187c1.357-0.805,2.711-1.616,4.061-2.438
		c0.11-0.067,0.219-0.136,0.329-0.203c1.344-0.82,2.684-1.646,4.021-2.483c0.103-0.064,0.205-0.131,0.308-0.195
		c1.34-0.841,2.678-1.688,4.01-2.546c0.119-0.076,0.236-0.155,0.355-0.231c1.316-0.849,2.63-1.704,3.938-2.57
		c0.131-0.086,0.261-0.175,0.391-0.262c1.294-0.858,2.586-1.722,3.873-2.596c0.153-0.104,0.305-0.21,0.457-0.314
		c1.264-0.861,2.525-1.727,3.781-2.604c0.168-0.117,0.334-0.237,0.502-0.354c1.239-0.867,2.475-1.739,3.706-2.621
		c0.192-0.137,0.382-0.278,0.574-0.416c1.206-0.867,2.409-1.738,3.608-2.62c0.206-0.151,0.41-0.306,0.615-0.458
		c1.181-0.872,2.36-1.748,3.534-2.635c0.244-0.184,0.485-0.372,0.728-0.556c1.134-0.86,2.266-1.723,3.393-2.596
		c0.273-0.212,0.544-0.428,0.817-0.641c1.094-0.853,2.187-1.707,3.275-2.572c0.297-0.236,0.592-0.478,0.889-0.716
		c1.058-0.846,2.116-1.694,3.167-2.552c0.35-0.286,0.698-0.578,1.047-0.865c0.997-0.819,1.993-1.638,2.984-2.467
		c0.351-0.294,0.7-0.595,1.05-0.89c0.984-0.83,1.969-1.659,2.947-2.5c0.382-0.328,0.761-0.663,1.143-0.993
		c0.941-0.815,1.883-1.628,2.819-2.453c0.445-0.393,0.886-0.792,1.331-1.187c0.869-0.772,1.738-1.542,2.602-2.323
		c0.457-0.413,0.909-0.833,1.364-1.248c0.846-0.771,1.694-1.541,2.535-2.32c0.506-0.469,1.007-0.947,1.511-1.419
		c0.784-0.734,1.57-1.465,2.35-2.207c0.627-0.596,1.248-1.202,1.872-1.802c0.653-0.628,1.308-1.251,1.957-1.885
		c0.61-0.594,1.213-1.198,1.82-1.797c0.657-0.649,1.318-1.293,1.972-1.947l93.775-93.775l140.663-140.663
		c3.909-3.909,6.642-8.548,8.199-13.479c0.222-0.704,0.421-1.415,0.595-2.13c0.127-0.52,0.241-1.042,0.343-1.567
		c0.305-1.573,0.495-3.164,0.571-4.76c0.025-0.532,0.038-1.064,0.038-1.596s-0.013-1.064-0.038-1.596
		c-0.076-1.595-0.266-3.186-0.571-4.76c-0.406-2.098-1.015-4.164-1.827-6.167c-1.252-3.087-2.991-6.021-5.208-8.693
		c-0.339-0.408-0.688-0.811-1.048-1.207c-0.341-0.376-0.692-0.746-1.055-1.109l-68.603-68.603l-68.603-68.603
		c-0.812-0.812-1.656-1.574-2.527-2.284s-1.77-1.371-2.693-1.98c-0.404-0.267-0.812-0.523-1.224-0.771
		c-2.887-1.729-5.979-2.983-9.164-3.76c-1.56-0.381-3.142-0.647-4.733-0.8c-1.061-0.102-2.125-0.152-3.19-0.152l0,0
		c-0.532,0-1.065,0.013-1.596,0.038s-1.063,0.063-1.593,0.114c-0.53,0.051-1.06,0.114-1.588,0.19
		c-1.583,0.229-3.154,0.571-4.697,1.028c-1.029,0.304-2.046,0.66-3.048,1.066c-1.002,0.406-1.987,0.863-2.953,1.371
		c-0.966,0.508-1.912,1.066-2.835,1.675c-1.845,1.218-3.596,2.64-5.22,4.264L571.525,634.487c-0.939,0.939-1.888,1.864-2.846,2.775
		c-0.301,0.286-0.608,0.561-0.911,0.844c-0.661,0.618-1.32,1.239-1.989,1.844c-0.359,0.325-0.726,0.638-1.088,0.959
		c-0.62,0.55-1.239,1.104-1.866,1.643c-0.388,0.333-0.783,0.654-1.173,0.983c-0.608,0.512-1.215,1.029-1.829,1.53
		c-0.409,0.334-0.825,0.656-1.237,0.985c-0.604,0.483-1.206,0.97-1.816,1.443c-0.419,0.324-0.844,0.637-1.265,0.957
		c-0.61,0.463-1.218,0.93-1.834,1.383c-0.426,0.313-0.858,0.615-1.286,0.923c-0.619,0.446-1.236,0.895-1.86,1.331
		c-0.427,0.298-0.861,0.585-1.291,0.879c-0.632,0.432-1.262,0.867-1.899,1.288c-0.433,0.286-0.87,0.561-1.305,0.842
		c-0.64,0.414-1.279,0.832-1.924,1.236c-0.44,0.275-0.885,0.54-1.327,0.81c-0.647,0.396-1.293,0.796-1.945,1.182
		c-0.441,0.261-0.886,0.511-1.329,0.767c-0.659,0.381-1.317,0.766-1.98,1.137c-0.445,0.249-0.894,0.487-1.341,0.731
		c-0.667,0.364-1.333,0.731-2.004,1.085c-0.451,0.238-0.906,0.465-1.359,0.698c-0.672,0.346-1.343,0.695-2.02,1.03
		c-0.458,0.227-0.92,0.444-1.38,0.667c-0.676,0.327-1.351,0.657-2.031,0.973c-0.464,0.216-0.932,0.422-1.397,0.633
		c-0.682,0.31-1.362,0.621-2.047,0.92c-0.469,0.205-0.941,0.399-1.411,0.599c-0.686,0.291-1.371,0.585-2.06,0.866
		c-0.477,0.195-0.957,0.379-1.436,0.569c-0.687,0.272-1.374,0.547-2.064,0.809c-0.486,0.185-0.975,0.359-1.463,0.539
		c-0.685,0.252-1.37,0.507-2.058,0.749c-0.499,0.176-1.002,0.342-1.502,0.513c-0.681,0.232-1.361,0.466-2.044,0.688
		c-0.509,0.166-1.021,0.322-1.531,0.482c-0.679,0.213-1.357,0.428-2.038,0.632c-0.517,0.154-1.035,0.299-1.553,0.448
		c-0.679,0.195-1.357,0.392-2.038,0.578c-0.526,0.143-1.053,0.277-1.58,0.415c-0.675,0.176-1.349,0.355-2.026,0.522
		c-0.536,0.132-1.074,0.255-1.611,0.382c-0.671,0.158-1.342,0.318-2.014,0.467c-0.545,0.121-1.092,0.232-1.638,0.347
		c-0.667,0.14-1.332,0.282-2,0.414c-0.556,0.109-1.113,0.209-1.67,0.312c-0.66,0.123-1.32,0.247-1.981,0.36
		c-0.568,0.098-1.137,0.186-1.705,0.277c-0.652,0.105-1.305,0.211-1.958,0.308c-0.575,0.085-1.151,0.16-1.726,0.239
		c-0.65,0.089-1.301,0.179-1.952,0.259c-0.58,0.071-1.16,0.134-1.74,0.199c-0.647,0.072-1.294,0.146-1.941,0.21
		c-0.59,0.058-1.18,0.108-1.77,0.16c-0.639,0.056-1.278,0.113-1.918,0.161c-0.595,0.045-1.191,0.081-1.787,0.119
		c-0.637,0.041-1.274,0.082-1.911,0.115c-0.599,0.031-1.197,0.052-1.796,0.076c-0.634,0.025-1.268,0.051-1.903,0.069
		c-0.601,0.016-1.202,0.024-1.803,0.034c-0.634,0.01-1.267,0.021-1.901,0.023c-0.615,0.002-1.229-0.004-1.843-0.009
		c-0.607-0.005-1.213-0.009-1.819-0.021c-0.618-0.012-1.236-0.033-1.854-0.053c-0.604-0.019-1.207-0.037-1.81-0.064
		c-0.623-0.027-1.245-0.063-1.867-0.098c-0.598-0.034-1.195-0.065-1.793-0.106c-0.625-0.042-1.25-0.094-1.875-0.144
		c-0.595-0.048-1.189-0.093-1.783-0.148c-0.628-0.057-1.255-0.124-1.882-0.189c-0.589-0.061-1.178-0.12-1.766-0.188
		c-0.632-0.073-1.263-0.156-1.894-0.237c-0.582-0.074-1.165-0.147-1.746-0.228c-0.636-0.089-1.271-0.188-1.906-0.285
		c-0.575-0.088-1.15-0.173-1.724-0.267c-0.642-0.105-1.282-0.221-1.923-0.335c-0.564-0.1-1.129-0.198-1.693-0.304
		c-0.647-0.122-1.292-0.255-1.938-0.386c-0.556-0.112-1.112-0.222-1.667-0.341c-0.653-0.14-1.303-0.29-1.955-0.438
		c-0.544-0.124-1.089-0.244-1.631-0.375c-0.66-0.158-1.318-0.327-1.976-0.494c-0.532-0.135-1.065-0.266-1.595-0.406
		c-0.664-0.176-1.326-0.363-1.988-0.549c-0.522-0.146-1.045-0.288-1.566-0.439c-0.667-0.194-1.331-0.4-1.996-0.604
		c-0.513-0.157-1.026-0.31-1.537-0.472c-0.669-0.212-1.335-0.437-2.002-0.659c-0.503-0.168-1.008-0.331-1.51-0.504
		c-0.67-0.231-1.337-0.474-2.005-0.715c-0.495-0.178-0.991-0.352-1.484-0.536c-0.672-0.25-1.34-0.513-2.009-0.773
		c-0.484-0.188-0.97-0.372-1.453-0.565c-0.673-0.27-1.342-0.552-2.011-0.832c-0.475-0.198-0.952-0.392-1.425-0.595
		c-0.673-0.289-1.342-0.591-2.011-0.89c-0.465-0.208-0.932-0.41-1.396-0.623c-0.671-0.308-1.338-0.63-2.006-0.948
		c-0.457-0.218-0.917-0.431-1.372-0.654c-0.666-0.326-1.327-0.666-1.99-1.002c-0.452-0.23-0.906-0.454-1.356-0.688
		c-0.658-0.343-1.311-0.699-1.964-1.052c-0.449-0.243-0.901-0.479-1.349-0.727c-0.652-0.361-1.299-0.736-1.947-1.107
		c-0.442-0.253-0.887-0.5-1.327-0.759c-0.646-0.379-1.285-0.771-1.926-1.16c-0.438-0.266-0.878-0.525-1.313-0.795
		c-0.638-0.396-1.27-0.807-1.904-1.214c-0.431-0.277-0.866-0.547-1.295-0.829c-0.627-0.411-1.247-0.837-1.869-1.259
		c-0.43-0.292-0.864-0.577-1.292-0.874c-0.612-0.424-1.216-0.863-1.823-1.297c-0.431-0.308-0.865-0.609-1.293-0.923
		c-0.602-0.441-1.198-0.896-1.795-1.347c-0.425-0.321-0.854-0.634-1.276-0.96c-0.596-0.46-1.185-0.935-1.776-1.405
		c-0.416-0.331-0.835-0.654-1.249-0.99c-0.595-0.484-1.181-0.982-1.77-1.476c-0.402-0.337-0.807-0.666-1.206-1.007
		c-0.591-0.506-1.174-1.028-1.76-1.545c-0.389-0.343-0.782-0.679-1.168-1.027c-0.611-0.551-1.212-1.117-1.816-1.68
		c-0.352-0.328-0.709-0.648-1.058-0.979c-0.779-0.74-1.548-1.495-2.315-2.254c-0.167-0.165-0.338-0.325-0.504-0.491
		c-5.602-5.596-10.679-11.519-15.23-17.706c-2.276-3.094-4.421-6.254-6.434-9.473c-4.698-7.51-8.681-15.34-11.95-23.393
		c-1.401-3.451-2.671-6.943-3.809-10.468s-2.146-7.083-3.021-10.667c-0.584-2.389-1.109-4.79-1.577-7.199
		c-0.234-1.205-0.453-2.412-0.657-3.621c-0.307-1.813-0.581-3.631-0.822-5.453c-0.723-5.464-1.151-10.96-1.284-16.462
		c-0.059-2.445-0.059-4.892-0.002-7.337c0.171-7.238,0.853-14.465,2.047-21.624c0.597-3.579,1.322-7.142,2.174-10.679
		c0.426-1.769,0.885-3.531,1.375-5.287c3.431-12.29,8.428-24.234,14.988-35.519c1.874-3.224,3.876-6.395,6.006-9.504
		c1.128-1.646,2.29-3.276,3.489-4.887c1.983-2.664,4.062-5.278,6.24-7.837c0.237-0.279,0.475-0.558,0.714-0.835
		c2.425-2.807,4.965-5.549,7.627-8.215c0.023-0.023,0.046-0.047,0.069-0.071l103.944-103.944l1.281-1.281l102.663-102.663
		c1.127-1.127,2.149-2.318,3.081-3.555c0.571-0.759,1.106-1.537,1.604-2.331c6.969-11.121,6.74-25.462-0.696-36.366
		c-0.531-0.779-1.099-1.54-1.704-2.281c-0.711-0.871-1.472-1.715-2.284-2.527l-34.302-34.302L424.992,27.185
		c-12.996-12.996-34.066-12.996-47.062,0L276.518,128.598v0l-98.416,98.416h0l-32.696,32.696c-1.659,1.659-3.302,3.33-4.928,5.011
		c-19.509,20.174-36.582,41.89-51.214,64.76c-1.219,1.906-2.422,3.82-3.607,5.741c-2.371,3.843-4.674,7.718-6.909,11.621
		c-4.79,8.365-9.268,16.865-13.434,25.481c-2.5,5.17-4.887,10.382-7.163,15.632c-1.348,3.111-2.657,6.236-3.927,9.373
		c-0.811,2.003-1.599,4.014-2.378,6.028c-1.5,3.879-2.94,7.776-4.32,11.69c-0.847,2.402-1.672,4.81-2.474,7.225
		c-1.462,4.402-2.855,8.822-4.167,13.261c-0.477,1.613-0.944,3.228-1.401,4.845c-0.794,2.809-1.552,5.626-2.286,8.449
		c-0.534,2.053-1.058,4.107-1.561,6.167c-0.398,1.63-0.786,3.262-1.164,4.896c-1.071,4.629-2.059,9.274-2.971,13.932
		c-0.105,0.534-0.208,1.067-0.311,1.602c-0.581,3.03-1.133,6.064-1.647,9.103c-0.558,3.3-1.077,6.606-1.557,9.916
		s-0.919,6.625-1.319,9.944c-0.584,4.84-1.081,9.689-1.496,14.544c-0.154,1.802-0.299,3.605-0.43,5.409
		c-0.358,4.928-0.628,9.862-0.812,14.797c-0.189,5.073-0.288,10.148-0.295,15.222c-0.008,6.675,0.142,13.349,0.451,20.017
		C24.396,581.044,24.864,587.705,25.49,594.352z M596.228,645.14l98.416-98.416l148.912,148.912l-98.416,98.416L596.228,645.14z
		 M294.196,146.276l148.912,148.912l-98.416,98.416L195.779,244.692L294.196,146.276z"/>
</g>
</svg>
