<?xml version="1.0" encoding="utf-8"?>
<!-- Generator: Adobe Illustrator 17.1.0, SVG Export Plug-In . SVG Version: 6.00 Build 0)  -->
<!DOCTYPE svg PUBLIC "-//W3C//DTD SVG 1.1//EN" "http://www.w3.org/Graphics/SVG/1.1/DTD/svg11.dtd">
<svg version="1.1" id="Layer_1" xmlns="http://www.w3.org/2000/svg" xmlns:xlink="http://www.w3.org/1999/xlink" x="0px" y="0px"
	 width="1000px" height="1000px" viewBox="0 0 1000 1000" enable-background="new 0 0 1000 1000" xml:space="preserve">
<g>
	<path d="M713.115,868.334H153.416c-13.807,0-25,11.193-25,25s11.193,25,25,25h559.699c13.807,0,25-11.193,25-25
		S726.922,868.334,713.115,868.334z"/>
	<path d="M979.635,813.573v-65.605c0-19.558-16.32-35.878-35.878-35.878c-0.344,0-0.684,0.017-1.025,0.027
		c-0.341-0.01-0.682-0.027-1.025-0.027h-98.234c-7.211,24.67-16.496,48.674-27.79,71.755h92.196v29.727
		c0,19.558,16.32,35.878,35.877,35.878C963.315,849.451,979.635,833.131,979.635,813.573z"/>
	<path d="M146.201,839.209l574.127,0.003c21.321,0,41.1-11.05,52.345-29.164c5.292-8.525,10.288-17.267,14.987-26.201
		c11.953-22.725,21.938-46.726,29.725-71.755c12.661-40.697,19.512-84.109,19.512-129.187c0-231.695-180.712-419.52-403.631-419.52
		c-85.689,0-165.138,27.757-230.488,75.087l-8.967-8.967l-8.951-8.951l-4.233-4.233c-12.01-12.01-31.481-12.01-43.49,0
		l-59.364,59.364c-12.01,12.01-12.01,31.481,0,43.49l6.111,6.111l8.995,8.995l9.026,9.026
		c-45.553,67.929-72.269,150.521-72.269,239.6c0,83.701,23.583,161.677,64.221,227.14
		C105.101,828.159,124.88,839.209,146.201,839.209z M207.07,446.638c21.46-44.772,54.851-82.278,95.86-108.007
		c38.051-23.873,82.648-37.615,130.335-37.615c139.494,0,252.577,117.534,252.577,262.52c0,52.378-14.758,101.173-40.188,142.138
		c-7.037,11.335-19.413,18.25-32.755,18.25l-359.268-0.002c-13.342,0-25.719-6.915-32.755-18.25
		c-25.429-40.965-40.187-89.759-40.187-142.136C180.689,521.533,190.196,481.844,207.07,446.638z"/>
	<path d="M348.731,522.97c-10.484,13.954-15.799,31.254-15.799,51.421c0,26.883,9.488,49.679,28.2,67.753
		c18.589,17.964,43.103,27.072,72.859,27.072c29.745,0,54.252-9.072,72.84-26.963c18.725-18.021,28.219-40.544,28.219-66.945
		c0-19.217-5.141-36.107-15.28-50.204c-5.517-7.668-12.399-14.21-20.578-19.58c4.996-3.924,9.254-8.361,12.746-13.29
		c8.036-11.341,12.11-24.722,12.11-39.771c0-23.017-8.521-42.81-25.329-58.829c-16.638-15.855-38.601-23.894-65.279-23.894
		c-26.544,0-48.314,7.877-64.704,23.413c-16.58,15.714-24.987,35.361-24.987,58.394c0,15.545,4.108,29.208,12.211,40.61
		c3.371,4.744,7.469,9.031,12.269,12.842C360.61,509.832,354.093,515.833,348.731,522.97z M464.625,605.471
		c-7.905,7.812-17.806,11.609-30.268,11.609c-8.087,0-15.417-1.865-22.408-5.703c-6.603-3.621-11.429-8.571-14.756-15.138
		c-3.594-7.085-5.341-14.172-5.341-21.665c0-12.077,3.819-21.789,11.677-29.693c7.833-7.881,17.557-11.713,29.729-11.713
		c12.596,0,22.715,3.926,30.934,12c8.157,8.017,12.122,17.996,12.122,30.506C476.312,587.955,472.49,597.701,464.625,605.471z
		 M434.174,481.217c-9.755,0-17.321-2.782-23.131-8.507c-5.757-5.67-8.556-12.953-8.556-22.264c0-7.902,2.756-14.257,8.674-20
		c5.941-5.767,13.349-8.57,22.646-8.57c9.136,0,16.492,2.872,22.487,8.779c6.027,5.94,8.834,12.812,8.834,21.625
		c0,8.313-2.689,14.834-8.464,20.521C450.914,478.464,443.557,481.217,434.174,481.217z"/>
</g>
</svg>
