<?xml version="1.0" encoding="utf-8"?>
<!-- Generator: Adobe Illustrator 17.1.0, SVG Export Plug-In . SVG Version: 6.00 Build 0)  -->
<!DOCTYPE svg PUBLIC "-//W3C//DTD SVG 1.1//EN" "http://www.w3.org/Graphics/SVG/1.1/DTD/svg11.dtd">
<svg version="1.1" id="Layer_1" xmlns="http://www.w3.org/2000/svg" xmlns:xlink="http://www.w3.org/1999/xlink" x="0px" y="0px"
	 width="1000px" height="1000px" viewBox="0 0 1000 1000" enable-background="new 0 0 1000 1000" xml:space="preserve">
<g>
	<path d="M52.798,418.654c13.716,11.398,101.076,84.564,130.979,109.821c1.692,1.429,14.523,78.33,20.263,114.413
		c5.324,33.467,28.348,60.992,68.117,59.74c26.817-0.844,202.119-0.376,262.916-0.045c18.577,0.101,34.268-5.947,47.779-18.438
		c10.06-9.301,220.791-193.959,247.718-217.554c1.796-1.573,4.181-2.286,6.546-1.96l34.131,4.704
		c4.175,0.576,8.11-2.094,9.119-6.186l13.346-54.139c0.982-3.984-1.119-8.083-4.926-9.612l-75.337-30.253
		c-2.235-0.897-4.751-0.771-6.885,0.345c-20.004,10.468-123.316,64.566-148.728,78.577c0,0-35.548-25.368-51.325-36.627
		c-12.325-8.796-26.078-14.727-42.013-14.556c-32.936,0.354-101.876,0.089-103.531,0.089v-6.874c0-2.846,2.307-5.153,5.153-5.153
		h35.93c3.435,0,6.219-2.784,6.219-6.219v-70.181c0-3.434-2.783-6.218-6.216-6.219l-188.795-0.074
		c-3.434-0.001-6.219,2.78-6.221,6.214l-0.052,70.473c-0.003,3.437,2.783,6.224,6.219,6.224h32.986c2.846,0,5.154,2.307,5.154,5.154
		v6.655l-75.473,0.042c0,0-130.347-107.446-141.815-111.922c-18.578-7.251-37.187-8.483-55.924-1.087
		c-21.544,8.503-35.903,24.246-45.148,45.19C19.145,360.552,27.235,397.41,52.798,418.654z M254.922,441.402
		c50.775-0.319,101.554-0.112,152.331-0.117c50.636-0.004,101.271-0.019,151.907-0.023c0.331-0.027,0.654-0.046,0.971-0.058
		c6.434-0.229,6.912,9.449,0.498,10.005c-49.807,4.319-227.692,18.398-271.579,21.866c-5.658,0.447-10.135,4.966-10.532,10.627
		c0,0-10.948,156.111-10.974,156.484c-0.298,4.249-5.589,7.127-9.616,6.898c-5.682-0.322-5.927-4.033-6.555-8.761
		c-1.105-8.326-2.149-16.661-3.225-24.992c-2.993-23.188-5.989-46.376-8.993-69.562c-3.159-24.385-5.677-48.967-9.585-73.247
		C226.666,452.493,238.219,441.507,254.922,441.402z M71.092,346.861c9.054-22.186,35.4-34.506,55.823-17.775
		c0.218,0.179,87.707,71.852,87.707,71.852c-28.081,13.495-43.023,33.938-37.692,66.741c-6.225-5.205-69.969-58.446-96.183-80.627
		C68.53,376.713,65.047,361.674,71.092,346.861z"/>
	<path d="M930.723,479.616c-4.247-4.515-8.858-8.489-14.142-11.759c-4.963-3.071-11.169,1.086-10.476,6.881
		c1.537,12.852-1.427,24.949-7.098,36.695c-16.854,34.908-50.563,78.089-20.497,115.639c17.422,21.758,52.568,27.62,74.778,10.78
		c18.813-14.265,25.357-40.396,22.267-63.803C971.298,541.793,953.026,503.329,930.723,479.616z"/>
</g>
</svg>
