<?xml version="1.0" encoding="utf-8"?>
<!-- Generator: Adobe Illustrator 17.1.0, SVG Export Plug-In . SVG Version: 6.00 Build 0)  -->
<!DOCTYPE svg PUBLIC "-//W3C//DTD SVG 1.1//EN" "http://www.w3.org/Graphics/SVG/1.1/DTD/svg11.dtd">
<svg version="1.1" id="Layer_1" xmlns="http://www.w3.org/2000/svg" xmlns:xlink="http://www.w3.org/1999/xlink" x="0px" y="0px"
	 width="1000px" height="1000px" viewBox="0 0 1000 1000" enable-background="new 0 0 1000 1000" xml:space="preserve">
<g>
	<path d="M161.044,964.778c13.629,13.629,35.726,13.629,49.354,0l393.867-393.867c-0.03-0.012-0.06-0.023-0.09-0.035
		c-36.768-14.91-69.747-36.806-98.021-65.08c-25.563-25.563-45.88-55.057-60.538-87.777L54.628,809.007
		c-13.629,13.629-13.629,35.725,0,49.354L161.044,964.778z"/>
	<path d="M523.832,488.118c29.189,29.188,63.379,50.316,99.807,63.42c29.679,10.676,60.843,16.032,92.011,16.032
		c38.299,0,76.597-8.059,112.135-24.178c16.486-7.477,20.43-29.123,7.629-41.923L667.229,333.285
		c-20.434-20.434-20.434-53.565,0-73.999L835.24,91.275c12.884-12.884,8.921-34.687-7.679-42.198
		C792.087,33.026,753.868,25,715.65,25c-69.426,0-138.849,26.483-191.819,79.453c-79.332,79.331-99.055,196.42-59.181,294.532
		C477.849,431.461,497.572,461.859,523.832,488.118z M544.361,394.873c-3.839,0-7.678-1.464-10.606-4.394
		c-5.858-5.858-5.858-15.355,0-21.213l30.453-30.453c5.858-5.858,15.356-5.858,21.213,0c5.858,5.858,5.858,15.355,0,21.213
		l-30.453,30.452C552.039,393.408,548.199,394.873,544.361,394.873z M585.45,435.961c-3.839,0-7.678-1.464-10.606-4.393
		c-5.858-5.858-5.858-15.355,0-21.213l30.452-30.453c5.857-5.858,15.355-5.858,21.213,0c5.858,5.858,5.858,15.355,0,21.213
		l-30.452,30.453C593.128,434.497,589.289,435.961,585.45,435.961z M615.932,472.656c-5.858-5.858-5.858-15.355,0-21.213
		l30.453-30.452c5.858-5.858,15.356-5.857,21.213,0c5.858,5.858,5.858,15.355,0,21.213l-30.453,30.453
		c-2.929,2.929-6.769,4.394-10.606,4.394C622.699,477.049,618.86,475.585,615.932,472.656z"/>
	<path d="M769.157,359.061l107.543,107.543c12.006,12.006,31.891,11.048,42.433-2.262c63.12-79.69,75.067-186.633,35.85-276.645
		c-8.002-18.366-32.126-22.733-46.292-8.568L769.157,318.663C758.001,329.819,758.001,347.905,769.157,359.061z"/>
</g>
</svg>
