<?xml version="1.0" encoding="utf-8"?>
<!-- Generator: Adobe Illustrator 17.1.0, SVG Export Plug-In . SVG Version: 6.00 Build 0)  -->
<!DOCTYPE svg PUBLIC "-//W3C//DTD SVG 1.1//EN" "http://www.w3.org/Graphics/SVG/1.1/DTD/svg11.dtd">
<svg version="1.1" id="Layer_1" xmlns="http://www.w3.org/2000/svg" xmlns:xlink="http://www.w3.org/1999/xlink" x="0px" y="0px"
	 width="1000px" height="1000px" viewBox="0 0 1000 1000" enable-background="new 0 0 1000 1000" xml:space="preserve">
<g>
	<path d="M849.577,459.854c5.359,5.359,14.048,5.359,19.407,0l27.306-27.306c5.359-5.359,5.359-14.048,0-19.407L593.332,110.182
		c-5.359-5.359-14.048-5.359-19.407,0l-27.306,27.306c-5.359,5.359-5.359,14.048,0,19.407L849.577,459.854z"/>
	<path d="M966.845,342.586L663.887,39.627c-5.359-5.359-14.048-5.359-19.407,0l-27.306,27.306c-5.359,5.359-5.359,14.048,0,19.407
		l302.958,302.959c5.359,5.359,14.048,5.359,19.407,0l27.306-27.306C972.204,356.634,972.204,347.945,966.845,342.586z"/>
	<path d="M154.503,966.841c10.118,10.118,26.524,10.119,36.642,0L306.017,851.97c10.118-10.118,10.118-26.524,0-36.642
		l-21.792-21.792l228.018-228.018c-8.962-14.31-19.552-27.643-31.599-39.689c-12.125-12.125-25.386-22.695-39.655-31.633
		L212.937,722.248l-21.792-21.792c-10.118-10.118-26.523-10.119-36.642,0L39.632,815.328c-10.119,10.118-10.118,26.524,0,36.642
		L154.503,966.841z M125.705,786.529c26.023-26.023,68.215-26.023,94.238,0c26.023,26.023,26.023,68.215,0,94.238
		c-26.023,26.023-68.215,26.023-94.238,0C99.682,854.745,99.682,812.553,125.705,786.529z"/>
	<path d="M260.977,442.436c0.646,0,1.318-0.079,2.008-0.246c19.384-4.704,39.215-7.056,59.052-7.056
		c47.796,0,95.594,13.661,137.034,40.98c13.876,9.148,27.04,19.826,39.251,32.037c12.212,12.212,22.886,25.378,32.034,39.254
		c38.656,58.636,49.966,129.998,33.927,196.083c-1.358,5.596,3.131,9.94,7.903,9.94c1.951,0,3.951-0.727,5.616-2.392
		l244.843-244.843c5.618-5.618,5.618-14.727,0-20.345l-302.02-302.02c-2.809-2.809-6.491-4.214-10.172-4.214
		c-3.682,0-7.364,1.405-10.173,4.214L255.437,428.671C250.202,433.906,254.24,442.436,260.977,442.436z M570.63,380.594
		c14.729-14.729,38.61-14.729,53.339,0c14.729,14.729,14.729,38.61,0,53.339c-14.729,14.729-38.61,14.729-53.339,0
		C555.901,419.204,555.901,395.323,570.63,380.594z"/>
</g>
</svg>
