<?xml version="1.0" encoding="utf-8"?>
<!-- Generator: Adobe Illustrator 17.1.0, SVG Export Plug-In . SVG Version: 6.00 Build 0)  -->
<!DOCTYPE svg PUBLIC "-//W3C//DTD SVG 1.1//EN" "http://www.w3.org/Graphics/SVG/1.1/DTD/svg11.dtd">
<svg version="1.1" id="Layer_1" xmlns="http://www.w3.org/2000/svg" xmlns:xlink="http://www.w3.org/1999/xlink" x="0px" y="0px"
	 width="1000px" height="1000px" viewBox="0 0 1000 1000" enable-background="new 0 0 1000 1000" xml:space="preserve">
<g>
	<path d="M487.117,644.106c-22.524-13.367-43.24-29.658-61.704-48.553c-20.89-21.378-38.236-45.273-51.816-71.297l-31.163,31.163
		c-6.555,6.555-17.184,6.555-23.739,0l-0.24-0.24c-6.555-6.556-17.184-6.556-23.739,0l-24.439,24.439l-20.7-20.7
		c-4.821-4.821-12.638-4.821-17.459,0l-40.987,40.987c-4.821,4.821-4.821,12.638,0,17.459l20.7,20.7L62.549,787.347
		c-6.556,6.555-6.556,17.184,0,23.739L203.452,951.99c6.555,6.555,17.184,6.555,23.739,0l232.167-232.167
		c6.555-6.555,6.555-17.184,0-23.739l-0.24-0.24c-6.555-6.555-6.555-17.184,0-23.739L487.117,644.106z M151.303,801.178
		c-3.199,0-6.398-1.221-8.839-3.661c-4.882-4.882-4.882-12.796,0-17.678l58.949-58.949c4.881-4.881,12.797-4.881,17.678,0
		c4.882,4.882,4.882,12.796,0,17.678l-58.949,58.949C157.701,799.957,154.502,801.178,151.303,801.178z M197.421,834.795
		c-2.44,2.44-5.64,3.661-8.839,3.661s-6.398-1.221-8.839-3.661c-4.882-4.882-4.882-12.796,0-17.678l58.948-58.948
		c4.881-4.881,12.797-4.881,17.678,0c4.882,4.882,4.882,12.796,0,17.678L197.421,834.795z M293.647,813.125l-58.948,58.948
		c-2.44,2.44-5.64,3.661-8.839,3.661s-6.398-1.221-8.839-3.661c-4.882-4.882-4.882-12.796,0-17.678l58.948-58.948
		c4.881-4.881,12.797-4.881,17.678,0C298.529,800.329,298.529,808.243,293.647,813.125z"/>
	<path d="M897.627,293.355L548.2,642.782c-1.396,1.396-2.876,2.675-4.421,3.848l21.835,41.893c3.318,6.366,11.863,7.68,16.94,2.603
		l363.419-363.419c5.076-5.077,3.763-13.622-2.603-16.94l-41.892-21.834C900.302,290.48,899.022,291.96,897.627,293.355z"/>
	<path d="M509.572,628.105c2.676,1.444,5.594,2.15,8.487,2.15c4.566,0,9.071-1.758,12.463-5.15l349.427-349.427
		c5.481-5.481,6.788-13.921,3.113-20.745c-12.421-23.062-28.356-44.731-47.83-64.204c-53.803-53.803-124.312-80.703-194.83-80.701
		c-20.717,0-41.431,2.342-61.725,6.987l-10.407-10.406l-10.145-10.145l-9.144-9.144c-49.662-49.662-130.181-49.662-179.843,0
		l-26.976,26.977c-37.764,37.764-46.803,93.368-27.134,139.681L141.614,427.392c-6.507,6.507-6.507,17.057,0,23.564l25.898,25.898
		c6.507,6.507,17.057,6.507,23.564,0l155.458-155.458l11.444-11.444l3.3,3.3l10.391,10.391
		c-13.995,60.608-7.183,124.99,20.543,181.999c12.664,26.039,29.684,50.542,51.082,72.439c18.834,19.274,39.79,35.174,62.119,47.73
		C506.794,626.587,508.18,627.354,509.572,628.105z"/>
</g>
</svg>
