<?xml version="1.0" encoding="utf-8"?>
<!-- Generator: Adobe Illustrator 17.1.0, SVG Export Plug-In . SVG Version: 6.00 Build 0)  -->
<!DOCTYPE svg PUBLIC "-//W3C//DTD SVG 1.1//EN" "http://www.w3.org/Graphics/SVG/1.1/DTD/svg11.dtd">
<svg version="1.1" id="Layer_1" xmlns="http://www.w3.org/2000/svg" xmlns:xlink="http://www.w3.org/1999/xlink" x="0px" y="0px"
	 width="1000px" height="1000px" viewBox="0 0 1000 1000" enable-background="new 0 0 1000 1000" xml:space="preserve">
<g>
	<path d="M445.484,523.414c-3.93-3.227-9.67-2.932-13.266,0.664L280.021,676.275c-2.84,2.84-0.337,7.714,3.609,6.969
		c15.287-2.886,41.985-18.761,49.337-12.986c9.564,7.512-7.672,53.61,2.535,59.791c10.375,6.283,43.242-30.375,54.151-25.468
		c11.037,4.965,5.41,53.86,16.858,57.417c11.535,3.584,34.627-39.898,46.441-37.743c11.864,2.163,18.11,50.991,30.115,51.713
		c12.021,0.723,24.078-47.006,36.099-47.729c12.005-0.722,29.699,45.22,41.563,43.057c11.814-2.154,12.141-51.375,23.676-54.959
		c11.448-3.557,39.625,36.817,50.662,31.853c10.909-4.907-0.608-52.756,9.767-59.039c10.207-6.181,47.275,26.225,56.839,18.712
		c9.357-7.35-13.295-51.044-4.671-59.668c8.624-8.624,52.318,14.029,59.668,4.671c7.512-9.564-24.894-46.632-18.713-56.838
		c6.283-10.375,54.132,1.143,59.039-9.766c4.965-11.036-35.409-39.215-31.852-50.662c3.584-11.535,52.804-11.861,54.959-23.675
		c2.164-11.864-43.778-29.558-43.056-41.563c0.723-12.021,48.452-24.078,47.729-36.099c-0.722-12.005-49.549-18.251-51.712-30.115
		c-2.154-11.814,41.328-34.906,37.744-46.441c-3.557-11.448-52.452-5.822-57.417-16.859c-4.907-10.909,31.751-43.776,25.468-54.152
		c-6.181-10.206-52.279,7.029-59.791-2.535c-5.775-7.352,10.101-34.05,12.986-49.337c0.745-3.947-4.129-6.449-6.969-3.609
		L572.886,383.41c-3.596,3.596-3.891,9.336-0.664,13.266c29.046,35.374,27.048,87.703-5.993,120.745S480.858,552.46,445.484,523.414
		z"/>
	<path d="M135.537,498.268l-76.356,76.357c-19.445,19.444-29.294,44.838-29.589,70.322h-0.028V801.33h176.561v-87.639
		l146.943-146.943c3.539-3.539,6.748-7.282,9.652-11.18L827.898,90.389c4.458-4.458,4.458-11.686,0-16.144l-29.001-29.001
		c-2.229-2.229-5.15-3.344-8.072-3.344s-5.843,1.115-8.072,3.344l-80.199,80.199c-66.027-55.168-148.492-83.469-230.356-83.469
		c-90.203,0-179.674,34.365-245.595,105.016C131.538,248.873,101.415,382.52,135.537,498.268z M115.609,678.108
		c-17.396,0-31.498-14.102-31.498-31.498s14.102-31.498,31.498-31.498s31.498,14.102,31.498,31.498S133.005,678.108,115.609,678.108
		z M347.647,275.463c56.875-56.875,146.82-60.524,207.938-10.947c6.82,5.532,7.318,15.774,1.108,21.983l-41.118,41.118
		c-31.509-11.649-68.718-4.499-94.496,21.279c-25.778,25.778-32.928,62.987-21.279,94.496l-41.118,41.118
		c-6.209,6.209-16.451,5.712-21.983-1.108C287.123,422.282,290.772,332.337,347.647,275.463z"/>
	<path d="M903.687,956.223h56.107c5.554,0,10.057-4.503,10.057-10.057V923.16v-40.038v-46.734c0-5.554-4.503-10.057-10.057-10.057
		h-728.67h-12.5h-12.5H29.563v20.618v12.5v12.5v11.173v40.038v23.005c0,5.554,4.503,10.057,10.057,10.057h56.107
		c5.554,0,10.057-4.503,10.057-10.057v-19.32c83.915,15.975,228.999,26.533,393.923,26.533s310.008-10.558,393.923-26.533v19.32
		C893.63,951.72,898.133,956.223,903.687,956.223z"/>
</g>
</svg>
