<?xml version="1.0" encoding="utf-8"?>
<!-- Generator: Adobe Illustrator 17.1.0, SVG Export Plug-In . SVG Version: 6.00 Build 0)  -->
<!DOCTYPE svg PUBLIC "-//W3C//DTD SVG 1.1//EN" "http://www.w3.org/Graphics/SVG/1.1/DTD/svg11.dtd">
<svg version="1.1" id="Layer_1" xmlns="http://www.w3.org/2000/svg" xmlns:xlink="http://www.w3.org/1999/xlink" x="0px" y="0px"
	 width="1000px" height="1000px" viewBox="0 0 1000 1000" enable-background="new 0 0 1000 1000" xml:space="preserve">
<g>
	<path d="M908.88,576.093c-3.774-15.363-67.893-11.866-73.428-26.453c-5.6-14.757,44.682-54.662,37.405-68.499
		c-7.333-13.943-68.73,4.861-77.638-8.021c-8.947-12.937,30.324-63.727,19.918-75.465c-10.419-11.753-65.557,21.145-77.31,10.725
		c-11.737-10.406,14.314-69.093,1.377-78.04c-12.882-8.908-58.576,36.183-72.52,28.85c-13.837-7.277-2.59-70.498-17.347-76.098
		c-14.586-5.535-48.093,49.215-63.456,45.441c-15.113-3.713-19.413-67.784-35.162-69.677c-15.408-1.851-34.813,59.336-50.721,59.336
		s-35.312-61.188-50.72-59.336c-15.748,1.892-20.048,65.964-35.161,69.676c-15.363,3.774-48.869-50.976-63.455-45.441
		c-14.757,5.599-3.51,68.821-17.347,76.098c-13.943,7.333-59.637-37.76-72.519-28.851c-12.937,8.946,13.114,67.634,1.377,78.04
		c-11.753,10.42-66.891-22.479-77.31-10.726c-10.406,11.737,28.864,62.528,19.918,75.465c-8.909,12.882-70.306-5.923-77.639,8.021
		c-7.277,13.838,43.004,53.743,37.404,68.5c-5.535,14.587-69.654,11.091-73.429,26.453c-3.712,15.113,54.696,41.732,52.804,57.48
		c-1.219,10.144-28.982,18.796-47.81,28.062c-7.627,3.754-4.99,15.218,3.512,15.218H370.27c6.629,0,12.199-5.018,12.846-11.616
		c5.833-59.414,55.938-105.835,116.884-105.835s111.051,46.421,116.884,105.835c0.647,6.598,6.217,11.616,12.846,11.616h85.397
		h115.366h69.881c8.501,0,11.139-11.464,3.511-15.218c-18.828-9.266-46.59-17.918-47.81-28.062
		C854.184,617.824,912.593,591.206,908.88,576.093z M761.361,636.019c-0.448-2.94-0.903-6.209-1.469-9.757
		c-0.199-1.076-0.405-2.188-0.614-3.317c-0.477-2.576-0.978-5.28-1.504-8.118c-0.34-2.055-0.875-4.126-1.335-6.286
		c-0.479-2.157-0.972-4.375-1.478-6.653c-0.468-2.292-1.114-4.591-1.725-6.964c-0.618-2.374-1.25-4.802-1.896-7.282
		c-0.624-2.491-1.458-4.964-2.199-7.528c-0.776-2.551-1.525-5.17-2.361-7.808c-0.893-2.618-1.8-5.28-2.722-7.984
		c-0.46-1.355-0.925-2.72-1.392-4.095c-0.49-1.365-1.035-2.719-1.555-4.095c-1.053-2.751-2.121-5.541-3.202-8.364
		c-1.132-2.802-2.376-5.593-3.58-8.447c-0.608-1.425-1.22-2.858-1.834-4.298c-0.627-1.435-1.332-2.836-2-4.269
		c-1.356-2.859-2.724-5.745-4.104-8.656c-5.848-11.467-12.397-23.1-19.833-34.462c-7.532-11.281-15.848-22.33-24.877-32.837
		c-9.143-10.391-19.007-20.178-29.344-29.182c-2.641-2.186-5.271-4.363-7.887-6.53c-1.29-1.117-2.668-2.099-4.019-3.117
		c-1.355-1.015-2.707-2.026-4.054-3.035c-1.35-1.011-2.695-2.02-4.037-3.025c-1.388-0.936-2.771-1.869-4.149-2.799
		c-1.381-0.931-2.758-1.859-4.129-2.783c-1.385-0.903-2.711-1.902-4.136-2.711c-2.815-1.698-5.606-3.381-8.372-5.049
		c-0.693-0.418-1.384-0.835-2.073-1.252c-0.7-0.396-1.413-0.762-2.117-1.143c-1.412-0.756-2.817-1.508-4.215-2.256
		c-1.4-0.75-2.792-1.496-4.177-2.238c-0.696-0.365-1.377-0.757-2.08-1.096c-0.706-0.333-1.41-0.664-2.112-0.994
		c-2.814-1.325-5.593-2.635-8.335-3.927c-0.688-0.319-1.368-0.657-2.058-0.958c-0.697-0.285-1.391-0.569-2.083-0.852
		c-1.386-0.567-2.761-1.13-4.127-1.688c-1.368-0.56-2.725-1.115-4.071-1.666c-1.349-0.55-2.678-1.124-4.039-1.565
		c-2.707-0.946-5.367-1.876-7.979-2.789c-1.309-0.458-2.606-0.912-3.89-1.361c-1.304-0.384-2.595-0.763-3.873-1.139
		c-5.125-1.456-10.009-3.06-14.778-4.064c-2.375-0.562-4.689-1.109-6.939-1.642c-1.128-0.256-2.233-0.553-3.336-0.765
		c-1.105-0.202-2.193-0.4-3.264-0.596c-4.288-0.761-8.306-1.566-12.037-2.15c-3.747-0.489-7.188-0.938-10.297-1.343
		c-1.56-0.194-3.033-0.417-4.43-0.556c-1.401-0.111-2.713-0.215-3.935-0.312c-2.443-0.193-4.521-0.358-6.206-0.491
		c-3.369-0.267-5.165-0.409-5.167-0.409h0h0.003c0.015,0,1.813-0.053,5.178-0.152c1.689-0.05,3.773-0.111,6.223-0.183
		c1.225-0.036,2.542-0.075,3.946-0.116c1.405-0.013,2.902,0.049,4.485,0.073c3.174,0.068,6.689,0.142,10.515,0.224
		c3.823,0.179,7.938,0.546,12.362,0.846c1.105,0.08,2.229,0.162,3.37,0.245c1.14,0.093,2.286,0.271,3.455,0.405
		c2.339,0.291,4.746,0.591,7.216,0.898c4.97,0.499,10.097,1.58,15.506,2.502c1.351,0.243,2.716,0.489,4.094,0.737
		c1.363,0.316,2.74,0.635,4.13,0.957c2.787,0.647,5.625,1.305,8.512,1.976c1.456,0.305,2.884,0.744,4.333,1.158
		c1.451,0.417,2.913,0.837,4.386,1.26c1.476,0.425,2.962,0.852,4.46,1.283c0.75,0.216,1.502,0.433,2.257,0.65
		c0.749,0.234,1.488,0.505,2.237,0.757c2.994,1.031,6.028,2.077,9.1,3.135c0.769,0.266,1.541,0.532,2.315,0.799
		c0.771,0.274,1.522,0.603,2.289,0.903c1.527,0.615,3.064,1.235,4.608,1.857c1.547,0.625,3.103,1.252,4.667,1.883
		c0.781,0.32,1.571,0.625,2.35,0.96c0.769,0.356,1.539,0.712,2.311,1.07c3.095,1.436,6.22,2.885,9.371,4.347
		c1.599,0.697,3.1,1.583,4.664,2.377c1.552,0.817,3.111,1.637,4.674,2.461c1.566,0.827,3.137,1.657,4.713,2.49
		c1.533,0.906,3.072,1.815,4.615,2.727c1.546,0.915,3.096,1.832,4.65,2.752c1.552,0.926,3.136,1.82,4.631,2.849
		c3.037,2.003,6.089,4.016,9.154,6.038c12.059,8.386,23.789,17.73,34.864,27.865c10.956,10.244,21.265,21.216,30.783,32.592
		c9.418,11.45,17.94,23.334,25.699,35.192c1.856,3.014,3.696,6.003,5.52,8.964c0.901,1.488,1.841,2.95,2.699,4.443
		c0.845,1.5,1.687,2.993,2.523,4.478c1.661,2.978,3.358,5.904,4.936,8.844c1.525,2.968,3.031,5.899,4.517,8.791
		c0.736,1.451,1.496,2.882,2.198,4.324c0.68,1.452,1.354,2.894,2.023,4.325c1.338,2.868,2.657,5.693,3.953,8.47
		c1.239,2.802,2.381,5.587,3.543,8.31c1.126,2.734,2.34,5.386,3.331,8.05c1.013,2.66,2.004,5.264,2.973,7.81
		c0.961,2.551,1.949,5.031,2.748,7.498c0.836,2.459,1.65,4.855,2.442,7.184c0.771,2.336,1.608,4.586,2.238,6.812
		c1.334,4.442,2.582,8.599,3.736,12.443c1.062,3.869,1.969,7.443,2.823,10.668c0.422,1.614,0.821,3.142,1.197,4.579
		c0.36,1.441,0.643,2.802,0.935,4.064c0.397,1.767,0.751,3.336,1.063,4.724h-24.956h-9.507h-15.055
		C761.759,638.682,761.565,637.388,761.361,636.019z"/>
	<path d="M40.611,791.184h918.777c8.622,0,15.611-6.99,15.611-15.611v-56.086c0-8.622-6.989-15.611-15.611-15.611H40.611
		c-8.622,0-15.611,6.989-15.611,15.611v56.086C25,784.195,31.989,791.184,40.611,791.184z"/>
</g>
</svg>
