<?xml version="1.0" encoding="utf-8"?>
<!-- Generator: Adobe Illustrator 17.1.0, SVG Export Plug-In . SVG Version: 6.00 Build 0)  -->
<!DOCTYPE svg PUBLIC "-//W3C//DTD SVG 1.1//EN" "http://www.w3.org/Graphics/SVG/1.1/DTD/svg11.dtd">
<svg version="1.1" id="Layer_1" xmlns="http://www.w3.org/2000/svg" xmlns:xlink="http://www.w3.org/1999/xlink" x="0px" y="0px"
	 width="1000px" height="1000px" viewBox="0 0 1000 1000" enable-background="new 0 0 1000 1000" xml:space="preserve">
<g>
	<path d="M667.978,649.066c4.666,0,9.465-0.706,14.251-2.15c58.214-17.564,115.14-50.899,163.584-99.343
		c134.098-134.098,152.425-333.187,40.935-444.677C837.712,53.86,771.703,29.93,701.759,29.93
		c-89.084,0-184.569,38.781-259.688,113.901c-48.444,48.444-81.778,105.369-99.342,163.582c-4.86,16.108-1.364,32.396,9.3,43.059
		l110.866,110.867l-8.565,9.113l-8.564,9.113l-134.008,142.59l2.881,2.708l9.109,8.561l9.109,8.56l40.986,38.52l0.184,0.173
		l132.191-140.658l8.564-9.113l8.565-9.113l106.152-112.95c0.866-0.921,1.65-1.889,2.368-2.888l4.645-4.943
		c10.015-10.656,7.986-29.334-3.832-44.611c-1.847-2.388-3.925-4.695-6.243-6.873c-6.958-6.54-14.929-10.931-22.718-13.017
		c1.722-0.171,3.457-0.263,5.199-0.263c13.6,0,26.549,5.131,36.461,14.447c21.396,20.108,22.444,53.874,2.336,75.27L541.033,539.478
		l98.137,98.138C646.665,645.111,656.941,649.066,667.978,649.066z"/>
	<path d="M216.972,971.014c8.324,8.324,19.393,12.908,31.165,12.909c11.771,0,22.84-4.584,31.164-12.909l66.941-66.941
		c13.822-13.822,16.516-34.614,8.102-51.164c-1.895-3.728-4.357-7.236-7.38-10.405c-0.241-0.253-0.474-0.511-0.722-0.76
		l-8.103-8.103l51.388-54.822c13.579-14.448,12.874-37.169-1.575-50.748l-12.83-12.057l-9.109-8.561l-9.108-8.56l-0.184-0.173
		L315.735,660.2l-9.109-8.56l-9.109-8.561l-2.881-2.708l-19.501-18.328c-6.931-6.513-15.764-9.74-24.58-9.74
		c-9.562,0-19.103,3.797-26.168,11.315l-46.579,49.691l-8.844-8.843l-8.844-8.844l-1.792-1.792
		c-8.324-8.325-19.392-12.909-31.164-12.909c-11.773,0-22.841,4.584-31.165,12.909l-66.941,66.941
		c-17.184,17.184-17.184,45.144,0,62.329L216.972,971.014z M127.164,693.377l179.531,179.531l-35.57,35.57
		c-1.465-1.796-3.028-3.547-4.71-5.229c-6.258-6.258-13.385-11.02-20.724-14.198c-9.015-3.905-16.257-11.147-20.162-20.162
		c-3.178-7.338-7.94-14.466-14.198-20.723s-13.385-11.02-20.724-14.198c-9.015-3.905-16.257-11.147-20.162-20.162
		c-3.178-7.338-7.94-14.466-14.198-20.724s-13.385-11.02-20.724-14.198c-9.015-3.905-16.257-11.147-20.162-20.162
		c-3.178-7.338-7.94-14.466-14.198-20.724c-3.202-3.202-6.634-6.01-10.203-8.418L127.164,693.377z"/>
</g>
</svg>
