<?xml version="1.0" encoding="utf-8"?>
<!-- Generator: Adobe Illustrator 17.1.0, SVG Export Plug-In . SVG Version: 6.00 Build 0)  -->
<!DOCTYPE svg PUBLIC "-//W3C//DTD SVG 1.1//EN" "http://www.w3.org/Graphics/SVG/1.1/DTD/svg11.dtd">
<svg version="1.1" id="Layer_1" xmlns="http://www.w3.org/2000/svg" xmlns:xlink="http://www.w3.org/1999/xlink" x="0px" y="0px"
	 width="1000px" height="1000px" viewBox="0 0 1000 1000" enable-background="new 0 0 1000 1000" xml:space="preserve">
<g>
	<path d="M632.803,78.246l-67.735-32.777c-1.061-0.513-2.298-0.513-3.359,0l-58.638,28.375c-1.061,0.513-2.298,0.513-3.359,0
		L441.071,45.47c-1.061-0.513-2.298-0.513-3.359,0l-67.739,32.776c-1.917,0.928-2.719,3.234-1.792,5.151l18.419,38.065
		c0.928,1.917,3.234,2.719,5.151,1.792l45.96-22.239c1.061-0.513,2.298-0.513,3.359,0l58.641,28.375
		c1.061,0.513,2.298,0.513,3.359,0l58.638-28.375c1.061-0.513,2.298-0.513,3.359,0l45.956,22.238
		c1.917,0.928,4.223,0.125,5.151-1.792l18.42-38.065C635.522,81.48,634.72,79.174,632.803,78.246z"/>
	<path d="M632.803,170.195l-67.735-32.777c-1.061-0.513-2.298-0.513-3.359,0l-58.638,28.375c-1.061,0.513-2.298,0.513-3.359,0
		l-58.641-28.374c-1.061-0.513-2.298-0.513-3.359,0l-67.739,32.776c-1.917,0.928-2.719,3.234-1.792,5.151l18.419,38.065
		c0.928,1.917,3.234,2.719,5.151,1.792l45.96-22.239c1.061-0.513,2.298-0.513,3.359,0l58.641,28.375
		c1.061,0.513,2.298,0.513,3.359,0l58.638-28.375c1.061-0.513,2.298-0.513,3.359,0l45.956,22.238
		c1.917,0.928,4.223,0.125,5.151-1.792l18.42-38.065C635.522,173.429,634.72,171.123,632.803,170.195z"/>
	<path d="M632.803,262.146l-67.735-32.777c-1.061-0.513-2.298-0.513-3.359,0l-58.638,28.375c-1.061,0.513-2.298,0.513-3.359,0
		l-58.641-28.374c-1.061-0.513-2.298-0.513-3.359,0l-67.739,32.776c-1.917,0.928-2.719,3.234-1.792,5.151l18.419,38.065
		c0.928,1.917,3.234,2.719,5.151,1.792l45.96-22.239c1.061-0.513,2.298-0.513,3.359,0l58.641,28.375
		c1.061,0.513,2.298,0.513,3.359,0l58.638-28.375c1.061-0.513,2.298-0.513,3.359,0l45.956,22.238
		c1.917,0.928,4.223,0.125,5.151-1.792l18.42-38.065C635.522,265.379,634.72,263.073,632.803,262.146z"/>
	<path d="M632.803,354.095l-67.735-32.777c-1.061-0.513-2.298-0.513-3.359,0l-58.638,28.375c-1.061,0.513-2.298,0.513-3.359,0
		l-58.641-28.374c-1.061-0.513-2.298-0.513-3.359,0l-67.739,32.776c-1.917,0.928-2.719,3.234-1.792,5.151l18.419,38.065
		c0.928,1.917,3.234,2.719,5.151,1.792l45.96-22.239c1.061-0.513,2.298-0.513,3.359,0l58.641,28.375
		c1.061,0.513,2.298,0.513,3.359,0l58.638-28.375c1.061-0.513,2.298-0.513,3.359,0l45.956,22.238
		c1.917,0.928,4.223,0.125,5.151-1.792l18.42-38.065C635.522,357.329,634.72,355.022,632.803,354.095z"/>
	<path d="M632.803,446.045l-67.735-32.777c-1.061-0.513-2.298-0.513-3.359,0l-58.638,28.375c-1.061,0.513-2.298,0.513-3.359,0
		l-58.641-28.374c-1.061-0.513-2.298-0.513-3.359,0l-67.739,32.776c-1.917,0.928-2.719,3.234-1.792,5.151l18.419,38.065
		c0.928,1.917,3.234,2.719,5.151,1.792l45.96-22.239c1.061-0.513,2.298-0.513,3.359,0l58.641,28.375
		c1.061,0.513,2.298,0.513,3.359,0l58.638-28.375c1.061-0.513,2.298-0.513,3.359,0l45.956,22.238
		c1.917,0.928,4.223,0.125,5.151-1.792l18.42-38.065C635.522,449.279,634.72,446.973,632.803,446.045z"/>
	<path d="M632.803,537.994l-67.735-32.777c-1.061-0.513-2.298-0.513-3.359,0l-58.638,28.375c-1.061,0.513-2.298,0.513-3.359,0
		l-58.641-28.374c-1.061-0.513-2.298-0.513-3.359,0l-67.739,32.776c-1.917,0.928-2.719,3.234-1.792,5.151l18.419,38.065
		c0.928,1.917,3.234,2.719,5.151,1.792l45.96-22.239c1.061-0.513,2.298-0.513,3.359,0l58.641,28.375
		c1.061,0.513,2.298,0.513,3.359,0l58.638-28.375c1.061-0.513,2.298-0.513,3.359,0l45.956,22.238
		c1.917,0.928,4.223,0.125,5.151-1.792l18.42-38.065C635.522,541.228,634.72,538.922,632.803,537.994z"/>
	<path d="M632.803,629.944l-67.735-32.777c-1.061-0.513-2.298-0.513-3.359,0l-58.638,28.375c-1.061,0.513-2.298,0.513-3.359,0
		l-58.641-28.374c-1.061-0.513-2.298-0.513-3.359,0l-67.739,32.776c-1.917,0.928-2.719,3.234-1.792,5.151l18.419,38.065
		c0.928,1.917,3.234,2.719,5.151,1.792l45.96-22.239c1.061-0.513,2.298-0.513,3.359,0l58.641,28.375
		c1.061,0.513,2.298,0.513,3.359,0l58.638-28.375c1.061-0.513,2.298-0.513,3.359,0l45.956,22.238
		c1.917,0.928,4.223,0.125,5.151-1.792l18.42-38.065C635.522,633.178,634.72,630.872,632.803,629.944z"/>
	<path d="M632.803,721.894l-67.735-32.777c-1.061-0.513-2.298-0.513-3.359,0l-58.638,28.375c-1.061,0.513-2.298,0.513-3.359,0
		l-58.641-28.374c-1.061-0.513-2.298-0.513-3.359,0l-67.739,32.776c-1.917,0.928-2.719,3.234-1.792,5.151l18.419,38.065
		c0.928,1.917,3.234,2.719,5.151,1.792l45.96-22.239c1.061-0.513,2.298-0.513,3.359,0l58.641,28.375
		c1.061,0.513,2.298,0.513,3.359,0l58.638-28.375c1.061-0.513,2.298-0.513,3.359,0l45.956,22.238
		c1.917,0.928,4.223,0.125,5.151-1.792l18.42-38.065C635.522,725.127,634.72,722.821,632.803,721.894z"/>
	<path d="M632.803,813.844l-67.735-32.777c-1.061-0.513-2.298-0.513-3.359,0l-58.638,28.375c-1.061,0.513-2.298,0.513-3.359,0
		l-58.641-28.374c-1.061-0.513-2.298-0.513-3.359,0l-67.739,32.776c-1.917,0.928-2.719,3.234-1.792,5.151l18.419,38.065
		c0.928,1.917,3.234,2.719,5.151,1.792l45.96-22.239c1.061-0.513,2.298-0.513,3.359,0l58.641,28.375
		c1.061,0.513,2.298,0.513,3.359,0l58.638-28.375c1.061-0.513,2.298-0.513,3.359,0l45.956,22.238
		c1.917,0.928,4.223,0.125,5.151-1.792l18.42-38.065C635.522,817.078,634.72,814.771,632.803,813.844z"/>
	<path d="M630.057,904.464l-63.66-30.805c-1.9-0.92-4.117-0.92-6.017,0l-55.98,27.088c-1.9,0.92-4.116,0.92-6.017,0L442.4,873.66
		c-1.9-0.919-4.116-0.919-6.017,0l-63.664,30.805c-3.434,1.661-4.871,5.792-3.209,9.226l15.761,32.573
		c1.661,3.434,5.792,4.871,9.226,3.209l41.886-20.268c1.9-0.919,4.116-0.919,6.017,0l55.983,27.089c1.9,0.92,4.117,0.92,6.017,0
		l55.98-27.088c1.9-0.92,4.117-0.92,6.017,0l41.881,20.266c3.434,1.662,7.564,0.225,9.226-3.208l15.762-32.573
		C634.927,910.256,633.491,906.126,630.057,904.464z"/>
	<path d="M340.333,40.339h-42.287c-2.13,0-3.856,1.727-3.856,3.856v914.016c0,2.13,1.727,3.856,3.856,3.856h42.287
		c2.13,0,3.856-1.727,3.856-3.856V44.195C344.189,42.065,342.462,40.339,340.333,40.339z"/>
	<path d="M701.368,40.339h-42.287c-2.13,0-3.856,1.727-3.856,3.856v914.016c0,2.13,1.727,3.856,3.856,3.856h42.287
		c2.13,0,3.856-1.727,3.856-3.856V44.195C705.225,42.065,703.498,40.339,701.368,40.339z"/>
</g>
</svg>
