<?xml version="1.0" encoding="utf-8"?>
<!-- Generator: Adobe Illustrator 17.1.0, SVG Export Plug-In . SVG Version: 6.00 Build 0)  -->
<!DOCTYPE svg PUBLIC "-//W3C//DTD SVG 1.1//EN" "http://www.w3.org/Graphics/SVG/1.1/DTD/svg11.dtd">
<svg version="1.1" id="Layer_1" xmlns="http://www.w3.org/2000/svg" xmlns:xlink="http://www.w3.org/1999/xlink" x="0px" y="0px"
	 width="1000px" height="1000px" viewBox="0 0 1000 1000" enable-background="new 0 0 1000 1000" xml:space="preserve">
<g>
	<path d="M950.164,845.895V628.494c-2.041,0.226-4.11,0.352-6.209,0.352H801.812v26.635c0,13.969-4.554,27.328-12.824,37.615
		c-9.415,11.713-22.949,18.43-37.131,18.43h-58.229c-14.183,0-27.717-6.718-37.131-18.43c-8.27-10.288-12.824-23.647-12.824-37.615
		v-26.635H356.328v26.635c0,13.969-4.554,27.328-12.824,37.615c-9.415,11.713-22.949,18.43-37.131,18.43h-58.229
		c-14.183,0-27.717-6.718-37.131-18.43c-8.27-10.288-12.824-23.647-12.824-37.615v-26.635H56.046c-2.1,0-4.169-0.126-6.209-0.352
		v217.401c0,17.146,13.9,31.046,31.046,31.046h838.235C936.264,876.94,950.164,863.041,950.164,845.895z"/>
	<path d="M49.836,603.224c2.006,0.407,4.083,0.622,6.209,0.622h142.142v-51.635c0-13.969,4.554-27.328,12.824-37.615
		c9.415-11.713,22.949-18.43,37.131-18.43h58.229c14.183,0,27.717,6.718,37.131,18.43c8.27,10.288,12.824,23.647,12.824,37.615
		v51.635h287.344v-51.635c0-13.969,4.554-27.328,12.824-37.615c9.415-11.713,22.949-18.43,37.131-18.43h58.229
		c14.183,0,27.717,6.718,37.131,18.43c8.27,10.288,12.824,23.647,12.824,37.615v51.635h142.142c2.126,0,4.203-0.215,6.209-0.622
		C964.334,600.347,975,587.82,975,572.8V380.208c0-17.146-13.899-31.046-31.046-31.046H748.401v-12.5v-12.5v-87.699
		c0-29.248-23.795-53.042-53.042-53.042H304.641c-29.247,0-53.042,23.794-53.042,53.042v87.699v12.5v12.5H56.046
		c-17.146,0-31.046,13.9-31.046,31.046V572.8C25,587.82,35.666,600.347,49.836,603.224z M301.599,336.663v-12.5v-66.167
		c11.012,15.659,32.91,26.528,57.678,26.528c10.658,0,20.783-2.015,29.739-5.557c11.002-4.352,23.336-4.352,34.339,0
		c8.956,3.542,19.08,5.557,29.738,5.557c10.658,0,20.783-2.015,29.738-5.557c11.002-4.352,23.336-4.352,34.339,0
		c8.956,3.542,19.081,5.557,29.738,5.557c10.658,0,20.783-2.015,29.738-5.557c11.002-4.352,23.337-4.352,34.339,0
		c8.956,3.542,19.08,5.557,29.738,5.557c24.768,0,46.666-10.869,57.678-26.528v66.167v12.5v12.5H301.599V336.663z"/>
	<path d="M751.857,686.526c13.783,0,24.956-13.9,24.956-31.046v-26.635v-12.5v-12.5v-51.635c0-17.146-11.173-31.046-24.956-31.046
		h-58.229c-13.783,0-24.956,13.9-24.956,31.046v51.635v12.5v12.5v26.635c0,17.146,11.173,31.046,24.956,31.046H751.857z"/>
	<path d="M306.373,686.526c13.783,0,24.956-13.9,24.956-31.046v-26.635v-12.5v-12.5v-51.635c0-17.146-11.173-31.046-24.956-31.046
		h-58.229c-13.783,0-24.956,13.9-24.956,31.046v51.635v12.5v12.5v26.635c0,17.146,11.173,31.046,24.956,31.046H306.373z"/>
</g>
</svg>
