<?xml version="1.0" encoding="utf-8"?>
<!-- Generator: Adobe Illustrator 16.0.4, SVG Export Plug-In . SVG Version: 6.00 Build 0)  -->
<!DOCTYPE svg PUBLIC "-//W3C//DTD SVG 1.1//EN" "http://www.w3.org/Graphics/SVG/1.1/DTD/svg11.dtd">
<svg version="1.1" id="Layer_1" xmlns="http://www.w3.org/2000/svg" xmlns:xlink="http://www.w3.org/1999/xlink" x="0px" y="0px"
	 width="1000px" height="1000px" viewBox="0 0 1000 1000" enable-background="new 0 0 1000 1000" xml:space="preserve">
<path d="M602.573,298.124l64.827,64.827L528.464,501.887l-64.828-64.828L602.573,298.124z M510.783,519.559l-64.829-64.829
	l-22.216-22.216c-6.368-6.368-14.882-9.491-23.785-9.491c-10.659,0-21.874,4.479-30.624,13.229L43.291,762.293
	c-16.058,16.057-17.73,40.416-3.737,54.409l109.26,109.261c6.368,6.367,14.882,9.49,23.785,9.49c10.66,0,21.875-4.479,30.625-13.229
	l326.039-326.039c16.057-16.057,17.729-40.417,3.737-54.41L510.783,519.559z M965.504,318.364l-98.51,98.509
	c-5.74,5.741-13.418,8.558-21.443,8.558c-9.611,0-19.724-4.038-27.612-11.927l-73.577-73.577l-10.722,10.722
	c-6.498,6.499-14.826,9.824-22.743,9.824c-6.61,0-12.935-2.321-17.663-7.049l-8.156-8.156l-64.829-64.828l-8.155-8.156
	c-10.392-10.392-9.148-28.481,2.775-40.407l10.723-10.722l-8.749-8.749c-14.478-14.477-15.986-36.44-3.37-49.056l98.509-98.51
	c5.742-5.741,13.419-8.558,21.445-8.558c9.61,0,19.723,4.038,27.611,11.927l8.749,8.749l10.723-10.722
	c6.498-6.499,14.825-9.824,22.743-9.824c6.609,0,12.935,2.32,17.662,7.049l81.141,81.141c10.392,10.391,9.148,28.481-2.775,40.405
	l-10.722,10.723l73.576,73.579C976.611,283.785,978.119,305.748,965.504,318.364z M924.694,275.72l-40.174-40.174
	c-9.763-9.764-25.591-9.762-35.355,0c-9.763,9.764-9.763,25.593,0,35.355l40.175,40.173c4.882,4.882,11.278,7.322,17.678,7.322
	s12.796-2.44,17.678-7.322C934.457,301.312,934.457,285.482,924.694,275.72z"/>
</svg>
