<?xml version="1.0" encoding="utf-8"?>
<!-- Generator: Adobe Illustrator 17.1.0, SVG Export Plug-In . SVG Version: 6.00 Build 0)  -->
<!DOCTYPE svg PUBLIC "-//W3C//DTD SVG 1.1//EN" "http://www.w3.org/Graphics/SVG/1.1/DTD/svg11.dtd">
<svg version="1.1" id="Layer_1" xmlns="http://www.w3.org/2000/svg" xmlns:xlink="http://www.w3.org/1999/xlink" x="0px" y="0px"
	 width="1000px" height="1000px" viewBox="0 0 1000 1000" enable-background="new 0 0 1000 1000" xml:space="preserve">
<g>
	<path d="M940.912,21.169H59.088C40.261,21.169,25,36.431,25,55.257v881.824c0,18.826,15.262,34.088,34.088,34.088h881.825
		c18.826,0,34.088-15.262,34.088-34.088V55.257C975,36.431,959.739,21.169,940.912,21.169z M110.12,94.067
		c18.375,0,33.27,14.896,33.27,33.27c0,18.374-14.895,33.27-33.27,33.27c-18.374,0-33.27-14.896-33.27-33.27
		C76.851,108.962,91.746,94.067,110.12,94.067z M923.017,885.097c0,18.827-15.262,34.088-34.088,34.088H111.072
		c-18.826,0-34.088-15.262-34.088-34.088V273.448c0-18.826,15.262-34.088,34.088-34.088h777.857
		c18.826,0,34.088,15.262,34.088,34.088V885.097z"/>
	<path d="M174.706,290.27h-28.192c-8.042,0-14.56,6.519-14.56,14.561v28.191c0,8.042,6.519,14.561,14.56,14.561h28.192
		c8.042,0,14.561-6.519,14.561-14.561v-28.191C189.266,296.789,182.747,290.27,174.706,290.27z"/>
	<path d="M174.706,381.649h-28.192c-8.042,0-14.56,6.519-14.56,14.561v28.191c0,8.042,6.519,14.561,14.56,14.561h28.192
		c8.042,0,14.561-6.519,14.561-14.561v-28.191C189.266,388.168,182.747,381.649,174.706,381.649z"/>
	<path d="M424.104,415.567h-162.19c-13.807,0-25,11.193-25,25s11.193,25,25,25h162.19c13.807,0,25-11.193,25-25
		S437.911,415.567,424.104,415.567z"/>
</g>
</svg>
