<?xml version="1.0" encoding="utf-8"?>
<!-- Generator: Adobe Illustrator 17.1.0, SVG Export Plug-In . SVG Version: 6.00 Build 0)  -->
<!DOCTYPE svg PUBLIC "-//W3C//DTD SVG 1.1//EN" "http://www.w3.org/Graphics/SVG/1.1/DTD/svg11.dtd">
<svg version="1.1" id="Layer_1" xmlns="http://www.w3.org/2000/svg" xmlns:xlink="http://www.w3.org/1999/xlink" x="0px" y="0px"
	 width="1000px" height="1000px" viewBox="0 0 1000 1000" enable-background="new 0 0 1000 1000" xml:space="preserve">
<g>
	<path d="M48.86,265.357c-9.213,0.104-16.598,7.657-16.494,16.871l0.813,71.941c0.104,9.149,7.554,16.495,16.679,16.495
		c0.065,0,0.128,0,0.192-0.001l24.839,1.223c6.507,27.954,17.883,54.988,34.091,79.764l-16.272,18.793
		c-6.441,6.589-6.322,17.151,0.267,23.592l51.445,50.295c3.245,3.173,7.456,4.754,11.662,4.754c4.333,0,8.662-1.677,11.931-5.021
		l18.421-16.693c23.835,14.833,49.602,25.27,76.159,31.319c1.937-3.323,4.307-6.424,7.097-9.219
		c8.304-8.318,19.281-12.997,30.997-13.234l11.061-0.679c0.082-0.289,0.169-0.577,0.251-0.866
		c3.515-12.337,7.75-24.422,12.685-36.218c-2.117,0.073-4.234,0.118-6.352,0.118c-18.984,0-37.969-2.925-56.233-8.785
		c-8.134-2.61-16.125-5.796-23.905-9.571c-17.355-8.419-33.67-19.731-48.222-33.958s-26.23-30.282-35.039-47.442
		c-0.873-1.7-1.719-3.41-2.535-5.131l134.056-29.913c9.663,6.327,20.774,9.476,31.883,9.476c0.812,0,1.624-0.017,2.435-0.051
		l17.2,16.815l56.459-56.555l-17.797-17.399c0.236-12.532-3.539-25.112-11.313-35.656l26.677-133.709
		c2.181,0.954,4.348,1.947,6.498,2.99c17.355,8.419,33.67,19.731,48.222,33.958c14.552,14.227,26.23,30.282,35.039,47.442
		c3.95,7.693,7.315,15.609,10.109,23.683c7.546,21.812,10.859,44.771,9.943,67.602c11.338-4.664,22.938-8.687,34.772-12.045
		l0.217-3.642l0.443-7.422c0.218-11.716,4.879-22.701,13.181-31.018c4.395-4.402,11.377-10.206,11.377-10.206
		c-6.507-27.954-17.883-54.988-34.091-79.764l16.272-18.793c6.441-6.589,6.322-17.151-0.267-23.593L492.268,85.61
		c-3.245-3.173-7.455-4.754-11.661-4.754c-4.333,0-8.662,1.677-11.931,5.021l-18.421,16.692
		c-25.136-15.643-52.42-26.405-80.514-32.279l-1.784-24.805c-0.103-9.149-7.553-16.494-16.679-16.495c-0.065,0-0.128,0-0.192,0.001
		l-71.941,0.813c-9.213,0.104-16.598,7.658-16.494,16.871l-1.223,24.839c-27.954,6.507-54.988,17.883-79.764,34.091l-18.793-16.272
		c-3.245-3.173-7.456-4.754-11.662-4.754c-4.333,0-8.662,1.677-11.931,5.021l-50.295,51.445c-6.441,6.589-6.322,17.151,0.267,23.593
		l16.693,18.421c-15.643,25.136-26.405,52.42-32.279,80.514L48.86,265.357z M286.103,266.377c-3.353,2.229-6.528,4.833-9.456,7.827
		c-3.402,3.48-6.272,7.281-8.628,11.298l-108.561,22.896l-24.735,5.216c0.135-18.536,3.062-37.059,8.783-54.89
		c2.61-8.134,5.796-16.125,9.571-23.905c8.419-17.355,19.731-33.67,33.958-48.222c14.227-14.552,30.282-26.23,47.442-35.039
		c7.693-3.949,15.61-7.316,23.683-10.109c17.234-5.962,35.183-9.295,53.223-9.977l-4.651,24.817L286.103,266.377z M337.674,333.867
		c-0.258,0.264-0.524,0.518-0.791,0.769c-0.088,0.083-0.175,0.169-0.264,0.251c-5.154,4.737-11.715,7.114-18.279,7.114
		c-6.816,0-13.635-2.561-18.893-7.702c-2.253-2.203-4.034-4.706-5.352-7.381c-4.926-9.997-3.314-22.424,4.92-30.846
		c5.294-5.415,12.305-8.13,19.323-8.13c3.054,0,6.108,0.514,9.024,1.543c3.594,1.269,6.977,3.315,9.881,6.154
		C347.917,306.077,348.111,323.192,337.674,333.867z"/>
	<path d="M950.44,687.707c11.114-0.01,20.116-9.027,20.107-20.141l-0.074-86.782c-0.009-11.108-9.018-20.107-20.123-20.107
		c-0.006,0-0.012,0-0.018,0l-29.932-1.787c-7.733-34.865-21.484-67.461-40.133-96.63l19.872-22.472
		c7.852-7.865,7.841-20.607-0.024-28.46l-61.417-61.312c-3.928-3.921-9.074-5.882-14.217-5.882c-5.156,0-10.311,1.969-14.242,5.906
		l-22.438,19.91c-29.201-18.599-61.82-32.296-96.698-39.969l-1.838-29.929c-0.009-11.108-9.018-20.107-20.124-20.107
		c-0.006,0-0.012,0-0.018,0l-40.564,0.034l-12.501,0.011l-12.5,0.01l-21.217,0.018c-11.114,0.009-20.116,9.027-20.107,20.141
		l-1.787,29.932c-8.296,1.84-16.458,4.031-24.482,6.537c-12.927,4.038-25.483,8.915-37.597,14.581
		c-4.912,2.298-9.745,4.735-14.508,7.285c-5.379,2.88-10.663,5.915-15.84,9.106c-0.597,0.368-1.19,0.742-1.785,1.114
		c-0.805,0.504-1.618,0.998-2.418,1.51l-22.472-19.872c-3.928-3.921-9.074-5.882-14.218-5.882c-1.097,0-2.192,0.108-3.278,0.287
		c-4.015,0.66-7.87,2.52-10.964,5.62l-0.577,0.578l-56.46,56.555l-4.276,4.283c-1.593,1.595-2.845,3.398-3.791,5.313
		c-2.668,5.403-2.757,11.74-0.279,17.208c0.974,2.15,2.324,4.172,4.094,5.938l19.91,22.438c-0.476,0.747-0.935,1.507-1.404,2.259
		c-3.226,5.165-6.303,10.431-9.218,15.8c-2.574,4.74-5.022,9.558-7.344,14.447c-5.903,12.426-10.992,25.314-15.174,38.605
		c-2.637,8.378-4.919,16.913-6.828,25.588l-29.929,1.838c-11.114,0.009-20.117,9.027-20.107,20.141l0.016,19.104l0.011,12.709
		l0.011,12.586l0.036,42.384c0.009,11.108,9.018,20.107,20.124,20.107c0.006,0,0.012,0,0.018,0l29.932,1.787
		c7.732,34.865,21.485,67.461,40.133,96.63l-19.872,22.472c-7.852,7.866-7.841,20.607,0.024,28.46l61.417,61.312
		c3.928,3.921,9.074,5.882,14.218,5.882c5.156,0,10.311-1.969,14.242-5.906l22.438-19.91c29.201,18.599,61.82,32.296,96.698,39.969
		l1.838,29.929c0.01,11.108,9.018,20.107,20.124,20.107c0.006,0,0.011,0,0.017,0l86.782-0.074
		c11.114-0.01,20.117-9.027,20.107-20.141l1.787-29.932c34.865-7.733,67.461-21.485,96.63-40.133l22.472,19.872
		c3.928,3.921,9.074,5.882,14.218,5.882c5.156,0,10.311-1.969,14.242-5.906l61.313-61.417c7.852-7.866,7.841-20.608-0.024-28.46
		l-19.91-22.438c18.599-29.201,32.296-61.82,39.969-96.698L950.44,687.707z M836.215,694.516
		c-3.297,9.897-7.278,19.479-11.879,28.699c-21.413,42.92-56.345,77.911-99.229,99.397c-9.213,4.616-18.788,8.614-28.679,11.927
		c-22.062,7.391-45.67,11.412-70.218,11.433c-0.063,0-0.128,0-0.191,0c-24.48,0-48.028-3.979-70.046-11.314
		c-2.187-0.729-4.36-1.488-6.516-2.282l90.285-138.918c14.666-2.9,27.681-10.362,37.53-20.84l140.841-0.12l24.181-0.021
		C840.64,679.973,838.61,687.327,836.215,694.516z M415.951,694.873c-7.391-22.062-11.412-45.67-11.433-70.218
		c-0.015-17.365,1.982-34.26,5.75-50.477c1.162-5.002,2.491-9.94,3.985-14.807c0.509-1.658,1.031-3.312,1.578-4.953
		c1.227-3.685,2.551-7.326,3.964-10.921c2.384-6.061,5.027-11.991,7.914-17.778c6.111-12.249,13.321-23.852,21.503-34.682
		c4.966-6.573,10.29-12.862,15.945-18.835l2.326,3.477l14.61,21.836l23.234,34.723l7.103,10.615l7.103,10.615l37.692,56.331
		c-1.008,4.751-1.548,9.675-1.543,14.726c0.005,5.871,0.74,11.568,2.1,17.019l-74.235,111.353l-16.914,25.371
		c-15.528-16.088-28.637-34.522-38.756-54.718C423.262,714.339,419.264,704.764,415.951,694.873z M577.018,408.411
		c15.705-3.55,32.042-5.435,48.818-5.449c0.064,0,0.13,0,0.194,0c24.478,0,48.026,3.979,70.043,11.314
		c9.897,3.297,19.478,7.278,28.699,11.878c42.92,21.414,77.911,56.345,99.397,99.229c4.616,9.213,8.614,18.788,11.927,28.679
		c2.407,7.185,4.449,14.535,6.118,22.027l-24.181,0.021l-140.841,0.12c-10.373-11-24.244-18.655-39.841-21.181l-74.487-114.186
		l-7.904-12.117l-7.465-11.443c2.684-1.018,5.39-1.992,8.124-2.908c2.172-0.728,4.363-1.413,6.565-2.074
		C567.06,410.854,572.005,409.544,577.018,408.411z M626.024,591.86c17.997-0.001,32.592,14.58,32.607,32.58
		c0,0.446-0.015,0.888-0.032,1.33c-0.006,0.146-0.008,0.293-0.015,0.439c-0.905,17.187-15.117,30.851-32.532,30.866
		c-0.009,0-0.018,0-0.027,0c-3.792,0-7.43-0.654-10.815-1.844c-12.682-4.458-21.781-16.529-21.793-30.736
		c-0.011-13.109,7.719-24.411,18.87-29.6c4.168-1.939,8.81-3.031,13.709-3.035C626.004,591.86,626.014,591.86,626.024,591.86
		C626.023,591.86,626.023,591.86,626.024,591.86z"/>
</g>
</svg>
