<?xml version="1.0" encoding="utf-8"?>
<!-- Generator: Adobe Illustrator 16.0.4, SVG Export Plug-In . SVG Version: 6.00 Build 0)  -->
<!DOCTYPE svg PUBLIC "-//W3C//DTD SVG 1.1//EN" "http://www.w3.org/Graphics/SVG/1.1/DTD/svg11.dtd">
<svg version="1.1" id="Layer_1" xmlns="http://www.w3.org/2000/svg" xmlns:xlink="http://www.w3.org/1999/xlink" x="0px" y="0px"
	 width="100px" height="100px" viewBox="0 0 100 100" enable-background="new 0 0 100 100" xml:space="preserve">
<g>
	<path d="M39.473,28.869c-6.537,0-11.84,5.303-11.84,11.84v12.408H81.9V40.709c0-6.537-5.303-11.84-11.84-11.84H39.473z
		 M72.811,40.536H36.735c0,0-1.011-6.845,5.316-6.845h25.457C74.118,33.691,72.811,40.536,72.811,40.536z"/>
	<path d="M12.672,18.101C8.737,22.048,8.7,27.623,8.7,27.845v38.703c0,3.54,1.566,6.858,4.317,9.103l14.628,11.976l-0.025-0.395
		v6.537c0,1.554,1.258,2.8,2.8,2.8h48.669c1.554,0,2.8-1.258,2.8-2.8V58.051H61.957v4.341c0,1.086-0.875,1.961-1.961,1.961h-8.301
		c-1.085,0-1.961-0.875-1.961-1.961v-4.341H27.633v22.57l-11.175-9.164c-1.48-1.209-2.318-2.984-2.318-4.896V27.857
		c0-0.074,0.049-2.245,1.159-4.28c1.394-2.541,3.811-3.787,7.388-3.787c6.648,0,24.815-0.025,40.146-0.062
		c0.777,0.974,1.985,1.603,3.33,1.603h16.403v5.674c0,0.913,0.543,1.702,1.296,1.899l6.08,1.566
		c0.703,0.173,1.356-0.444,1.356-1.295V4.756c0-0.851-0.666-1.467-1.356-1.295l-6.08,1.566c-0.765,0.197-1.296,0.987-1.296,1.899
		v5.871H66.163c-1.295,0-2.454,0.58-3.231,1.492c-15.343,0.024-33.572,0.062-40.232,0.062C18.53,14.352,15.163,15.622,12.672,18.101
		z M44.53,80.264c0.765-0.766,2.022-0.766,2.788,0l6.845,6.845c0.765,0.765,0.765,2.022,0,2.787c-0.382,0.383-0.888,0.58-1.394,0.58
		s-1.011-0.197-1.394-0.58l-6.845-6.845C43.765,82.286,43.765,81.028,44.53,80.264z M34.7,80.264c0.765-0.766,2.023-0.766,2.788,0
		l6.845,6.845c0.765,0.765,0.765,2.022,0,2.787c-0.382,0.383-0.888,0.58-1.394,0.58c-0.505,0-1.011-0.197-1.394-0.58L34.7,83.051
		C33.923,82.286,33.923,81.028,34.7,80.264z"/>
</g>
</svg>
