<?xml version="1.0" encoding="utf-8"?>
<!-- Generator: Adobe Illustrator 17.1.0, SVG Export Plug-In . SVG Version: 6.00 Build 0)  -->
<!DOCTYPE svg PUBLIC "-//W3C//DTD SVG 1.1//EN" "http://www.w3.org/Graphics/SVG/1.1/DTD/svg11.dtd">
<svg version="1.1" id="Layer_1" xmlns="http://www.w3.org/2000/svg" xmlns:xlink="http://www.w3.org/1999/xlink" x="0px" y="0px"
	 width="1000px" height="1000px" viewBox="0 0 1000 1000" enable-background="new 0 0 1000 1000" xml:space="preserve">
<g>
	<path d="M205.561,689.934c0.116-0.117,4.157-4.109,6.137-5.923c16.376-15,35.352-26.392,56.4-33.857
		c17.851-6.332,36.442-9.541,55.255-9.541c22.192,0.001,43.867,4.396,64.425,13.064c14.217,5.995,27.354,13.801,39.243,23.305
		c18.395-11.043,35.241-20.863,49.381-28.778c28.727-16.083,38.585-20.034,43.965-21.68c25.558-7.819,51.581-11.194,73.665-13.463
		c11.858-1.218,24.017-0.474,35.683-3.264c12.756-3.051,20.909-11.791,30.461-20.1c20.556-17.882,39.483-37.686,55.972-59.391
		c7.878-10.371,14.942-21.206,21.795-32.268c7.803-12.595,13.552-24.135,13.738-39.07c0.094-7.518,0.558-15.051,0.838-22.564
		c0.816-21.897,1.636-43.794,2.458-65.691c1.553-41.333,3.075-82.667,4.73-123.996c0.127-3.182,0.252-6.363,0.395-9.544
		c0.02-0.447,0.04-0.875,0.059-1.317c0.011-0.239,0.021-0.475,0.032-0.713c0.065-0.035,0.13-0.07,0.195-0.105
		c11.391-6.143,16.303-20.119,10.958-32.142c-2.012-4.526-5.208-8.154-9.057-10.694c-6.88-4.54-15.854-5.591-23.943-1.995
		L31.849,504.293c-12.616,5.609-18.297,20.384-12.688,33.001c4.142,9.315,13.28,14.85,22.857,14.85
		c3.394,0,6.842-0.694,10.143-2.162l2.332-1.037c27.106,51.61,63.959,92.04,109.803,120.389
		c13.046,8.067,26.68,15.068,40.862,21.017C205.293,690.212,205.426,690.071,205.561,689.934z"/>
	<path d="M941.371,42.939c-5.167,0-10.479,1.417-15.361,4.097c-9.945,5.46-29.013,17.036-47.454,28.23
		C860.3,86.35,841.423,97.81,831.862,103.059c-8.755,4.807-17.993,10.419-26.243,18.87c-5.218,5.344-12.135,15.358-15.467,32.712
		c-2.233,11.633-13.905,316.542-13.941,317.679c-0.812,25.445,57.892,143.053,61.758,151.257c-0.002,0-0.004,0-0.006,0
		c-2.159-0.001-288.929,20.32-310.281,26.852c-11.765,3.6-101.463,56.245-103.591,57.541c-0.68-0.694-1.372-1.375-2.065-2.053
		c-0.122-0.12-0.241-0.243-0.364-0.362c-0.166-0.162-0.336-0.319-0.503-0.479c-26.096-25.087-61.246-39.46-97.805-39.462
		c-15.575,0-31.401,2.606-46.897,8.103c-16.637,5.9-31.469,14.638-44.161,25.464c-0.131,0.112-0.263,0.223-0.393,0.334
		c-0.168,0.145-0.339,0.285-0.506,0.43c-42.457,36.84-60.421,97.33-40.525,153.428c20.438,57.627,74.83,93.688,132.751,93.688
		c15.581,0,31.406-2.606,46.907-8.104c73.128-25.937,111.52-106.529,85.584-179.658c-0.804-2.267-1.661-4.5-2.569-6.7
		c20.038-12.762,81.565-47.715,98.913-52.486c13.311-3.661,273.514-22.715,298.732-25.549c13.373-1.503,26.077-1.918,35.845-12.309
		c8.225-8.75,11.793-21.054,8.049-32.652c-3.613-11.19-62.802-141.3-63.407-144.664c-0.861-5.264,12.38-311.274,12.867-320.639
		c0.334-6.436,10.731-11.909,10.731-11.909c4.441-2.567,93.028-55.431,100.22-59.379c5.919-3.25,10.09-8.935,11.744-16.008
		c1.843-7.883,0.323-16.346-4.066-22.637C958.027,46.998,950.285,42.939,941.371,42.939z M350.598,882.763
		c-8.93,3.167-18.056,4.67-27.032,4.67c-33.382,0-64.723-20.779-76.502-53.99c-14.947-42.143,7.179-88.587,49.321-103.534
		c8.927-3.166,18.047-4.668,27.018-4.668c17.328,0,34.105,5.601,47.885,15.631c-19.087,12.183-50.47,32.634-63.493,41.705
		c-9.926,6.915-13.873,18.28-10.3,29.661c3.737,11.903,14.521,20.217,26.226,20.217c5.333,0,10.649-1.739,15.373-5.029
		c12.21-8.504,43.964-29.285,62.834-41.588C412.485,826.121,390.548,868.594,350.598,882.763z"/>
</g>
</svg>
