<?xml version="1.0" encoding="utf-8"?>
<!-- Generator: Adobe Illustrator 17.1.0, SVG Export Plug-In . SVG Version: 6.00 Build 0)  -->
<!DOCTYPE svg PUBLIC "-//W3C//DTD SVG 1.1//EN" "http://www.w3.org/Graphics/SVG/1.1/DTD/svg11.dtd">
<svg version="1.1" id="Layer_1" xmlns="http://www.w3.org/2000/svg" xmlns:xlink="http://www.w3.org/1999/xlink" x="0px" y="0px"
	 width="1000px" height="1000px" viewBox="0 0 1000 1000" enable-background="new 0 0 1000 1000" xml:space="preserve">
<g>
	<path d="M330.787,238.572c-5.371,3.146-8.644,11.702-4.501,17.167c41.353,54.547,83.413,108.555,126.156,162.019h31.968
		c-46.308-57.579-91.815-115.801-136.456-174.684C343.831,237.635,337.222,234.803,330.787,238.572z"/>
	<path d="M629.78,417.758L506.065,234.222c-11.576-17.173-34.882-21.71-52.055-10.136c-17.174,11.576-21.711,34.883-10.135,52.056
		l95.458,141.616H629.78z"/>
	<path d="M898.405,458.258c-2.11-9.076-10.199-15.5-19.518-15.5h-28.282c13.787-30.813,20.627-64.769,19.367-98.541
		c-2.475-66.367-38.398-132.924-101.333-159.325c-16.901-7.09-35.375-10.92-53.789-10.921c-14.587,0-29.135,2.402-42.846,7.492
		c-29.109,10.806-53.691,33.877-65.888,62.494c-12.779,29.985-11.869,64.053,5.711,92.03c14.765,23.499,39.567,37.221,66.253,37.221
		c5.634,0,11.349-0.611,17.075-1.871c22.809-5.02,41.19-22.582,47.258-45.021c5.806-21.471-0.368-47.321-18.007-61.605
		c-3.332-2.698-7.294-4.283-11.208-4.283c-3.558,0-7.078,1.31-10.052,4.283c-5.338,5.337-6.377,16.096,0,21.26
		c1.196,0.968,2.329,1.966,3.441,3.03c0.016,0.015,1.918,2.213,2.026,2.213c0.001,0,0.003,0,0.003-0.001
		c0.709,1.012,1.359,2.065,1.988,3.126c0.025,0.043,1.297,2.667,1.38,2.667c0.018,0-0.018-0.118-0.13-0.403
		c2.719,6.649,2.837,9.233,2.468,16.591c-0.468,9.337-5.989,18.777-15.35,24.529c-6.355,3.904-13.748,5.675-21.215,5.675
		c-4.239,0-8.501-0.57-12.612-1.645c-11.533-3.014-21.617-11.803-28.295-22.432c-14.661-23.332-11.534-51.079,2.315-74.024
		c14.066-23.304,39.248-38.453,66.2-40.903c3.141-0.285,6.291-0.426,9.437-0.426c26.421,0,52.668,9.908,72.994,27.103
		c23.447,19.837,38.574,47.226,46.508,76.525c12.092,44.653,4.998,94.065-17.009,135.161H646.632h-90.447h-51.576h-32.113H371.678
		c-11.664,0-20.89,9.923-19.972,21.551c0.331,4.199,0.501,8.443,0.501,12.728c0,88.679-29.038,160.567-117.717,160.567
		c-31.739,0-61.325-9.211-86.236-25.104c-3.397-2.167-7.197-3.209-10.945-3.209c-6.555,0-12.955,3.183-16.791,9.094L25.1,765.421
		c-8.651,13.332,0.917,30.946,16.809,30.946H951.79c12.9,0,22.439-12.012,19.518-24.576L898.405,458.258z"/>
</g>
</svg>
