<?xml version="1.0" encoding="utf-8"?>
<!-- Generator: Adobe Illustrator 17.1.0, SVG Export Plug-In . SVG Version: 6.00 Build 0)  -->
<!DOCTYPE svg PUBLIC "-//W3C//DTD SVG 1.1//EN" "http://www.w3.org/Graphics/SVG/1.1/DTD/svg11.dtd">
<svg version="1.1" id="Layer_1" xmlns="http://www.w3.org/2000/svg" xmlns:xlink="http://www.w3.org/1999/xlink" x="0px" y="0px"
	 width="1000px" height="1000px" viewBox="0 0 1000 1000" enable-background="new 0 0 1000 1000" xml:space="preserve">
<g>
	<path d="M643.65,486.362l67.596-67.595c48.836,19.388,103.95,18.182,152.007-3.615c11.799-5.352,14.622-20.844,5.46-30.006
		L748.338,264.771c-14.625-14.625-14.625-38.338,0-52.963L868.589,91.556c9.221-9.222,6.385-24.827-5.497-30.203
		c-71.512-32.357-158.606-19.148-217.389,39.635c-55.213,55.212-70.079,135.975-44.618,204.958l-68.926,68.926L643.65,486.362z"/>
	<path d="M514.482,392.549l-93.414-93.414l-111.49,111.491l93.414,93.414l111.49,111.49l341.528,341.528
		c4.877,4.877,11.27,7.316,17.662,7.316s12.785-2.438,17.662-7.316l76.166-76.166c9.755-9.755,9.755-25.57,0-35.324L625.973,504.04
		L514.482,392.549z"/>
	<path d="M919.163,154.437l-99.869,99.869c-7.984,7.984-7.984,20.93,0,28.914l76.972,76.972c8.593,8.593,22.826,7.907,30.371-1.619
		c45.177-57.037,53.728-133.579,25.659-198.004C946.568,147.424,929.301,144.298,919.163,154.437z"/>
	<path d="M154.431,627.738l120.375,120.375c14.625,14.625,14.625,38.338,0,52.963L154.555,921.328
		c-9.221,9.221-6.385,24.827,5.497,30.203c71.512,32.356,158.606,19.148,217.389-39.635
		c55.014-55.014,69.968-135.394,44.888-204.212l74.476-74.476l-111.49-111.49l-72.694,72.694
		c-49.015-19.688-104.434-18.584-152.729,3.321C148.092,603.084,145.27,618.577,154.431,627.738z"/>
	<path d="M96.508,656.309c-45.177,57.037-53.728,133.58-25.659,198.004c5.727,13.145,22.994,16.271,33.133,6.132l99.869-99.869
		c7.984-7.985,7.984-20.93,0-28.914l-76.972-76.972C118.286,646.097,104.053,646.783,96.508,656.309z"/>
	<path d="M153.667,487.886c11.956,11.956,31.339,11.956,43.295,0l5.772-5.773c11.956-11.955,11.956-31.339,0-43.294l-11.545-11.545
		l22.731-22.73L107.127,297.75l-22.73,22.73l-11.545-11.545c-11.956-11.955-31.339-11.955-43.295,0l-5.772,5.773
		c-11.956,11.956-11.956,31.339,0,43.294L153.667,487.886z"/>
	<path d="M318.854,92.409l105.457,105.457c121.583-81.009,189.545-13.059,96.078-106.526
		C455.748,26.698,374.123,57.284,318.854,92.409z"/>
	<path d="M286.438,95.348c-5.978-5.978-13.812-8.967-21.647-8.967s-15.67,2.989-21.647,8.967L113.259,225.232
		c-11.956,11.955-11.956,31.339,0,43.295l11.545,11.545l106.793,106.793l11.545,11.545c5.978,5.978,13.812,8.967,21.647,8.967
		c1.894,0,3.788-0.179,5.655-0.528c4.374-0.818,8.603-2.592,12.352-5.325c1.272-0.928,2.491-1.964,3.64-3.113l5.462-5.462
		l111.49-111.491l8.838-8.838l4.093-4.093c1.631-1.631,3.032-3.405,4.218-5.275c7.507-11.836,6.106-27.696-4.218-38.02
		l-12.571-12.571L297.862,106.772L286.438,95.348z"/>
</g>
</svg>
