<?xml version="1.0" encoding="utf-8"?>
<!-- Generator: Adobe Illustrator 17.1.0, SVG Export Plug-In . SVG Version: 6.00 Build 0)  -->
<!DOCTYPE svg PUBLIC "-//W3C//DTD SVG 1.1//EN" "http://www.w3.org/Graphics/SVG/1.1/DTD/svg11.dtd">
<svg version="1.1" id="Layer_1" xmlns="http://www.w3.org/2000/svg" xmlns:xlink="http://www.w3.org/1999/xlink" x="0px" y="0px"
	 width="1000px" height="1000px" viewBox="0 0 1000 1000" enable-background="new 0 0 1000 1000" xml:space="preserve">
<g>
	<path d="M188.19,958.078l295.743-326.307L376.792,524.63C222.942,664.07,59.65,812.067,50.857,820.037
		c-0.251,0.228-0.494,0.457-0.729,0.702c-9.743,10.2-8.09,27.902,3.815,39.807l94.074,94.074
		C160.066,966.668,178.052,968.217,188.19,958.078z"/>
	<path d="M731.042,359.125c0.213-0.235,0.434-0.466,0.661-0.687c25.993-25.257,66.197-22.911,95.568-42.533
		c23.193-15.495,36.991-49.801,51.189-73.14c23.102-37.974,46.204-75.949,69.306-113.923c3.218-5.29,2.399-12.09-1.979-16.469
		L896.19,62.777c-4.378-4.378-11.183-5.195-16.472-1.977c-39.446,23.997-78.893,47.995-118.339,71.992
		c-24.814,15.096-53.909,27.766-70.994,52.38c-19.591,28.225-15.142,66.147-40.578,92.014
		c-0.003,0.003-48.994,44.406-118.954,107.813l92.711,92.711L731.042,359.125z"/>
	<path d="M606.755,496.257l-94.448-94.448L409.229,298.731c1.654-4.356,3.144-8.76,4.474-13.203
		c1.389-4.64,2.606-9.322,3.642-14.036c13.772-62.643-3.595-130.885-52.109-179.399C306.453,33.31,219.358,20.101,147.847,52.458
		c-11.882,5.376-14.718,20.981-5.497,30.203l120.251,120.251c14.625,14.625,14.625,38.338,0,52.963L142.226,376.25
		c-9.161,9.161-6.339,24.654,5.461,30.006c38.818,17.607,82.239,21.772,123.238,12.507c4.692-1.06,9.351-2.297,13.969-3.709
		c4.421-1.352,8.802-2.866,13.137-4.541l97.308,97.308l105.404,105.404l339.234,339.234c4.877,4.877,11.27,7.316,17.662,7.316
		s12.785-2.438,17.662-7.316l76.166-76.166c9.755-9.755,9.755-25.57,0-35.324L606.755,496.257z M852.773,887.306
		c-17.673,0-32-14.327-32-32s14.327-32,32-32s32,14.327,32,32S870.446,887.306,852.773,887.306z"/>
	<path d="M115.834,344.473l79.586-79.586c8.255-8.256,8.255-21.641,0-29.896L83.425,122.996c-5.945-5.945-15.953-4.381-19.817,3.085
		c-35.663,68.916-28.724,154.163,20.824,216.718C92.233,352.648,106.949,353.357,115.834,344.473z"/>
</g>
</svg>
